<?xml version="1.0" encoding="us-ascii" standalone="no"?><svg xmlns="http://www.w3.org/2000/svg" xmlns:xlink="http://www.w3.org/1999/xlink" contentStyleType="text/css" height="1823px" preserveAspectRatio="none" style="width:672px;height:1823px;background:#FFFFFF;" version="1.1" viewBox="0 0 672 1823" width="672px" zoomAndPan="magnify"><defs/><g><ellipse cx="392.625" cy="20" fill="#222222" rx="10" ry="10" style="stroke:#222222;stroke-width:1.0;"/><rect fill="#F1F1F1" height="36.3441" rx="12.5" ry="12.5" style="stroke:#181818;stroke-width:0.5;" width="97" x="344.125" y="50"/><text fill="#000000" font-family="sans-serif" font-size="12" lengthAdjust="spacing" textLength="77" x="354.125" y="72.8281">Read CLI args</text><rect fill="#F1F1F1" height="36.3441" rx="12.5" ry="12.5" style="stroke:#181818;stroke-width:0.5;" width="150" x="317.625" y="106.3441"/><text fill="#000000" font-family="sans-serif" font-size="12" lengthAdjust="spacing" textLength="130" x="327.625" y="129.1722">parseGlobalFlags(args)</text><rect fill="#F1F1F1" height="36.3441" rx="12.5" ry="12.5" style="stroke:#181818;stroke-width:0.5;" width="223" x="281.125" y="212.1792"/><text fill="#000000" font-family="sans-serif" font-size="12" lengthAdjust="spacing" textLength="203" x="291.125" y="235.0073">Fallback to Cobra rootCmd.Execute()</text><ellipse cx="392.625" cy="286.8512" fill="none" rx="11" ry="11" style="stroke:#222222;stroke-width:1.0;"/><ellipse cx="392.625" cy="286.8512" fill="#222222" rx="6" ry="6" style="stroke:#222222;stroke-width:1.0;"/><polygon fill="#F1F1F1" points="360.125,162.6882,425.125,162.6882,437.125,174.6882,425.125,186.6882,360.125,186.6882,348.125,174.6882,360.125,162.6882" style="stroke:#181818;stroke-width:0.5;"/><text fill="#000000" font-family="sans-serif" font-size="11" lengthAdjust="spacing" textLength="17" x="396.625" y="198.4471">yes</text><text fill="#000000" font-family="sans-serif" font-size="11" lengthAdjust="spacing" textLength="65" x="360.125" y="178.9562">Parse error?</text><text fill="#000000" font-family="sans-serif" font-size="11" lengthAdjust="spacing" textLength="14" x="437.125" y="171.4653">no</text><polygon fill="#F1F1F1" points="283.625,339.8512,501.625,339.8512,513.625,354.8331,501.625,369.815,283.625,369.815,271.625,354.8331,283.625,339.8512" style="stroke:#181818;stroke-width:0.5;"/><text fill="#000000" font-family="sans-serif" font-size="11" lengthAdjust="spacing" textLength="146" x="283.625" y="351.6101">passthrough args exist AND</text><text fill="#000000" font-family="sans-serif" font-size="11" lengthAdjust="spacing" textLength="218" x="283.625" y="366.592">first token is not management command?</text><text fill="#000000" font-family="sans-serif" font-size="11" lengthAdjust="spacing" textLength="17" x="254.625" y="351.6101">yes</text><text fill="#000000" font-family="sans-serif" font-size="11" lengthAdjust="spacing" textLength="14" x="513.625" y="351.6101">no</text><rect fill="#F1F1F1" height="36.3441" rx="12.5" ry="12.5" style="stroke:#181818;stroke-width:0.5;" width="174" x="129.75" y="379.815"/><text fill="#000000" font-family="sans-serif" font-size="12" lengthAdjust="spacing" textLength="154" x="139.75" y="402.6431">command = passthrough[0]</text><rect fill="#F1F1F1" height="36.3441" rx="12.5" ry="12.5" style="stroke:#181818;stroke-width:0.5;" width="213" x="110.25" y="436.1591"/><text fill="#000000" font-family="sans-serif" font-size="12" lengthAdjust="spacing" textLength="193" x="120.25" y="458.9872">commandArgs = passthrough[1..n]</text><rect fill="#F1F1F1" height="36.3441" rx="12.5" ry="12.5" style="stroke:#181818;stroke-width:0.5;" width="159" x="137.25" y="492.5032"/><text fill="#000000" font-family="sans-serif" font-size="12" lengthAdjust="spacing" textLength="139" x="147.25" y="515.3313">Load config (config.Load)</text><rect fill="#F1F1F1" height="36.3441" rx="12.5" ry="12.5" style="stroke:#181818;stroke-width:0.5;" width="89" x="172.25" y="598.3383"/><text fill="#000000" font-family="sans-serif" font-size="12" lengthAdjust="spacing" textLength="69" x="182.25" y="621.1664">Return error</text><ellipse cx="216.75" cy="673.0103" fill="none" rx="11" ry="11" style="stroke:#222222;stroke-width:1.0;"/><ellipse cx="216.75" cy="673.0103" fill="#222222" rx="6" ry="6" style="stroke:#222222;stroke-width:1.0;"/><polygon fill="#F1F1F1" points="167.75,548.8473,265.75,548.8473,277.75,560.8473,265.75,572.8473,167.75,572.8473,155.75,560.8473,167.75,548.8473" style="stroke:#181818;stroke-width:0.5;"/><text fill="#000000" font-family="sans-serif" font-size="11" lengthAdjust="spacing" textLength="17" x="220.75" y="584.6063">yes</text><text fill="#000000" font-family="sans-serif" font-size="11" lengthAdjust="spacing" textLength="98" x="167.75" y="565.1153">Config load failed?</text><text fill="#000000" font-family="sans-serif" font-size="11" lengthAdjust="spacing" textLength="14" x="277.75" y="557.6244">no</text><rect fill="#F1F1F1" height="36.3441" rx="12.5" ry="12.5" style="stroke:#181818;stroke-width:0.5;" width="189" x="122.25" y="726.0103"/><text fill="#000000" font-family="sans-serif" font-size="12" lengthAdjust="spacing" textLength="169" x="132.25" y="748.8384">Load watchlist (watchlist.Load)</text><rect fill="#F1F1F1" height="36.3441" rx="12.5" ry="12.5" style="stroke:#181818;stroke-width:0.5;" width="89" x="172.25" y="831.8454"/><text fill="#000000" font-family="sans-serif" font-size="12" lengthAdjust="spacing" textLength="69" x="182.25" y="854.6735">Return error</text><ellipse cx="216.75" cy="906.5175" fill="none" rx="11" ry="11" style="stroke:#222222;stroke-width:1.0;"/><ellipse cx="216.75" cy="906.5175" fill="#222222" rx="6" ry="6" style="stroke:#222222;stroke-width:1.0;"/><polygon fill="#F1F1F1" points="161.75,782.3545,271.75,782.3545,283.75,794.3545,271.75,806.3545,161.75,806.3545,149.75,794.3545,161.75,782.3545" style="stroke:#181818;stroke-width:0.5;"/><text fill="#000000" font-family="sans-serif" font-size="11" lengthAdjust="spacing" textLength="17" x="220.75" y="818.1134">yes</text><text fill="#000000" font-family="sans-serif" font-size="11" lengthAdjust="spacing" textLength="110" x="161.75" y="798.6224">Watchlist load failed?</text><text fill="#000000" font-family="sans-serif" font-size="11" lengthAdjust="spacing" textLength="14" x="283.75" y="791.1315">no</text><rect fill="#F1F1F1" height="36.3441" rx="12.5" ry="12.5" style="stroke:#181818;stroke-width:0.5;" width="200" x="116.75" y="959.5175"/><text fill="#000000" font-family="sans-serif" font-size="12" lengthAdjust="spacing" textLength="180" x="126.75" y="982.3456">Match rule (matcher.MatchRule)</text><polygon fill="#F1F1F1" points="165.75,1065.3525,267.75,1065.3525,279.75,1077.3525,267.75,1089.3525,165.75,1089.3525,153.75,1077.3525,165.75,1065.3525" style="stroke:#181818;stroke-width:0.5;"/><text fill="#000000" font-family="sans-serif" font-size="11" lengthAdjust="spacing" textLength="102" x="165.75" y="1081.6205">Interactive session?</text><text fill="#000000" font-family="sans-serif" font-size="11" lengthAdjust="spacing" textLength="17" x="136.75" y="1074.1295">yes</text><text fill="#000000" font-family="sans-serif" font-size="11" lengthAdjust="spacing" textLength="14" x="279.75" y="1074.1295">no</text><rect fill="#F1F1F1" height="36.3441" rx="12.5" ry="12.5" style="stroke:#181818;stroke-width:0.5;" width="150" x="36.5" y="1099.3525"/><text fill="#000000" font-family="sans-serif" font-size="12" lengthAdjust="spacing" textLength="130" x="46.5" y="1122.1806">Build warning message</text><rect fill="#F1F1F1" height="36.3441" rx="12.5" ry="12.5" style="stroke:#181818;stroke-width:0.5;" width="201" x="11" y="1170.6966"/><text fill="#000000" font-family="sans-serif" font-size="12" lengthAdjust="spacing" textLength="181" x="21" y="1193.5247">Prompt user (prompter.Confirm)</text><rect fill="#F1F1F1" height="36.3441" rx="12.5" ry="12.5" style="stroke:#181818;stroke-width:0.5;" width="110" x="56.5" y="1291.5317"/><text fill="#000000" font-family="sans-serif" font-size="12" lengthAdjust="spacing" textLength="90" x="66.5" y="1314.3598">Abort command</text><ellipse cx="111.5" cy="1373.8758" fill="none" rx="11" ry="11" style="stroke:#222222;stroke-width:1.0;"/><ellipse cx="111.5" cy="1373.8758" fill="#222222" rx="6" ry="6" style="stroke:#222222;stroke-width:1.0;"/><polygon fill="#F1F1F1" points="81,1242.0408,142,1242.0408,154,1254.0408,142,1266.0408,81,1266.0408,69,1254.0408,81,1242.0408" style="stroke:#181818;stroke-width:0.5;"/><text fill="#000000" font-family="sans-serif" font-size="11" lengthAdjust="spacing" textLength="14" x="115.5" y="1277.7997">no</text><text fill="#000000" font-family="sans-serif" font-size="11" lengthAdjust="spacing" textLength="61" x="81" y="1258.3087">Confirmed?</text><text fill="#000000" font-family="sans-serif" font-size="11" lengthAdjust="spacing" textLength="17" x="154" y="1250.8178">yes</text><rect fill="#F1F1F1" height="36.3441" rx="12.5" ry="12.5" style="stroke:#181818;stroke-width:0.5;" width="109" x="267.5" y="1148.8435"/><text fill="#000000" font-family="sans-serif" font-size="12" lengthAdjust="spacing" textLength="89" x="277.5" y="1171.6716">Block command</text><ellipse cx="322" cy="1231.1876" fill="none" rx="11" ry="11" style="stroke:#222222;stroke-width:1.0;"/><ellipse cx="322" cy="1231.1876" fill="#222222" rx="6" ry="6" style="stroke:#222222;stroke-width:1.0;"/><polygon fill="#F1F1F1" points="244,1099.3525,400,1099.3525,412,1111.3525,400,1123.3525,244,1123.3525,232,1111.3525,244,1099.3525" style="stroke:#181818;stroke-width:0.5;"/><text fill="#000000" font-family="sans-serif" font-size="11" lengthAdjust="spacing" textLength="14" x="326" y="1135.1114">no</text><text fill="#000000" font-family="sans-serif" font-size="11" lengthAdjust="spacing" textLength="156" x="244" y="1115.6205">non_interactive.passthrough?</text><text fill="#000000" font-family="sans-serif" font-size="11" lengthAdjust="spacing" textLength="17" x="412" y="1108.1295">yes</text><polygon fill="#F1F1F1" points="216.75,1412.8758,228.75,1424.8758,216.75,1436.8758,204.75,1424.8758,216.75,1412.8758" style="stroke:#181818;stroke-width:0.5;"/><polygon fill="#F1F1F1" points="178.75,1015.8616,254.75,1015.8616,266.75,1027.8616,254.75,1039.8616,178.75,1039.8616,166.75,1027.8616,178.75,1015.8616" style="stroke:#181818;stroke-width:0.5;"/><text fill="#000000" font-family="sans-serif" font-size="11" lengthAdjust="spacing" textLength="17" x="220.75" y="1051.6205">yes</text><text fill="#000000" font-family="sans-serif" font-size="11" lengthAdjust="spacing" textLength="76" x="178.75" y="1032.1295">Rule matched?</text><text fill="#000000" font-family="sans-serif" font-size="11" lengthAdjust="spacing" textLength="14" x="266.75" y="1024.6386">no</text><polygon fill="#F1F1F1" points="216.75,1456.8758,228.75,1468.8758,216.75,1480.8758,204.75,1468.8758,216.75,1456.8758" style="stroke:#181818;stroke-width:0.5;"/><rect fill="#F1F1F1" height="36.3441" rx="12.5" ry="12.5" style="stroke:#181818;stroke-width:0.5;" width="235" x="99.25" y="1500.8758"/><text fill="#000000" font-family="sans-serif" font-size="12" lengthAdjust="spacing" textLength="215" x="109.25" y="1523.7039">Create exec cmd (executor.Command)</text><rect fill="#F1F1F1" height="36.3441" rx="12.5" ry="12.5" style="stroke:#181818;stroke-width:0.5;" width="152" x="140.75" y="1557.2199"/><text fill="#000000" font-family="sans-serif" font-size="12" lengthAdjust="spacing" textLength="132" x="150.75" y="1580.048">Bind stdin/stdout/stderr</text><rect fill="#F1F1F1" height="36.3441" rx="12.5" ry="12.5" style="stroke:#181818;stroke-width:0.5;" width="125" x="154.25" y="1613.564"/><text fill="#000000" font-family="sans-serif" font-size="12" lengthAdjust="spacing" textLength="105" x="164.25" y="1636.3921">Run real command</text><polygon fill="#F1F1F1" points="173.25,1669.9082,260.25,1669.9082,272.25,1681.9082,260.25,1693.9082,173.25,1693.9082,161.25,1681.9082,173.25,1669.9082" style="stroke:#181818;stroke-width:0.5;"/><text fill="#000000" font-family="sans-serif" font-size="11" lengthAdjust="spacing" textLength="87" x="173.25" y="1686.1761">Execution error?</text><text fill="#000000" font-family="sans-serif" font-size="11" lengthAdjust="spacing" textLength="17" x="144.25" y="1678.6852">yes</text><text fill="#000000" font-family="sans-serif" font-size="11" lengthAdjust="spacing" textLength="14" x="272.25" y="1678.6852">no</text><rect fill="#F1F1F1" height="36.3441" rx="12.5" ry="12.5" style="stroke:#181818;stroke-width:0.5;" width="146" x="71.25" y="1703.9082"/><text fill="#000000" font-family="sans-serif" font-size="12" lengthAdjust="spacing" textLength="126" x="81.25" y="1726.7362">Return execution error</text><rect fill="#F1F1F1" height="36.3441" rx="12.5" ry="12.5" style="stroke:#181818;stroke-width:0.5;" width="104" x="237.25" y="1703.9082"/><text fill="#000000" font-family="sans-serif" font-size="12" lengthAdjust="spacing" textLength="84" x="247.25" y="1726.7362">Return success</text><polygon fill="#F1F1F1" points="216.75,1746.2523,228.75,1758.2523,216.75,1770.2523,204.75,1758.2523,216.75,1746.2523" style="stroke:#181818;stroke-width:0.5;"/><ellipse cx="216.75" cy="1801.2523" fill="none" rx="11" ry="11" style="stroke:#222222;stroke-width:1.0;"/><ellipse cx="216.75" cy="1801.2523" fill="#222222" rx="6" ry="6" style="stroke:#222222;stroke-width:1.0;"/><rect fill="#F1F1F1" height="36.3441" rx="12.5" ry="12.5" style="stroke:#181818;stroke-width:0.5;" width="185" x="476" y="379.815"/><text fill="#000000" font-family="sans-serif" font-size="12" lengthAdjust="spacing" textLength="165" x="486" y="402.6431">Run Cobra rootCmd.Execute()</text><ellipse cx="568.5" cy="447.1591" fill="none" rx="11" ry="11" style="stroke:#222222;stroke-width:1.0;"/><ellipse cx="568.5" cy="447.1591" fill="#222222" rx="6" ry="6" style="stroke:#222222;stroke-width:1.0;"/><line style="stroke:#181818;stroke-width:1.0;" x1="392.625" x2="392.625" y1="30" y2="50"/><polygon fill="#181818" points="388.625,40,392.625,50,396.625,40,392.625,44" style="stroke:#181818;stroke-width:1.0;"/><line style="stroke:#181818;stroke-width:1.0;" x1="392.625" x2="392.625" y1="86.3441" y2="106.3441"/><polygon fill="#181818" points="388.625,96.3441,392.625,106.3441,396.625,96.3441,392.625,100.3441" style="stroke:#181818;stroke-width:1.0;"/><line style="stroke:#181818;stroke-width:1.0;" x1="392.625" x2="392.625" y1="248.5233" y2="275.8512"/><polygon fill="#181818" points="388.625,265.8512,392.625,275.8512,396.625,265.8512,392.625,269.8512" style="stroke:#181818;stroke-width:1.0;"/><line style="stroke:#181818;stroke-width:1.0;" x1="392.625" x2="392.625" y1="186.6882" y2="212.1792"/><polygon fill="#181818" points="388.625,202.1792,392.625,212.1792,396.625,202.1792,392.625,206.1792" style="stroke:#181818;stroke-width:1.0;"/><line style="stroke:#181818;stroke-width:1.0;" x1="437.125" x2="514.125" y1="174.6882" y2="174.6882"/><polygon fill="#181818" points="510.125,245.8512,514.125,255.8512,518.125,245.8512,514.125,249.8512" style="stroke:#181818;stroke-width:1.0;"/><line style="stroke:#181818;stroke-width:1.0;" x1="514.125" x2="514.125" y1="174.6882" y2="319.8512"/><line style="stroke:#181818;stroke-width:1.0;" x1="514.125" x2="392.625" y1="319.8512" y2="319.8512"/><line style="stroke:#181818;stroke-width:1.0;" x1="392.625" x2="392.625" y1="319.8512" y2="339.8512"/><polygon fill="#181818" points="388.625,329.8512,392.625,339.8512,396.625,329.8512,392.625,333.8512" style="stroke:#181818;stroke-width:1.0;"/><line style="stroke:#181818;stroke-width:1.0;" x1="392.625" x2="392.625" y1="142.6882" y2="162.6882"/><polygon fill="#181818" points="388.625,152.6882,392.625,162.6882,396.625,152.6882,392.625,156.6882" style="stroke:#181818;stroke-width:1.0;"/><line style="stroke:#181818;stroke-width:1.0;" x1="216.75" x2="216.75" y1="416.1591" y2="436.1591"/><polygon fill="#181818" points="212.75,426.1591,216.75,436.1591,220.75,426.1591,216.75,430.1591" style="stroke:#181818;stroke-width:1.0;"/><line style="stroke:#181818;stroke-width:1.0;" x1="216.75" x2="216.75" y1="472.5032" y2="492.5032"/><polygon fill="#181818" points="212.75,482.5032,216.75,492.5032,220.75,482.5032,216.75,486.5032" style="stroke:#181818;stroke-width:1.0;"/><line style="stroke:#181818;stroke-width:1.0;" x1="216.75" x2="216.75" y1="634.6824" y2="662.0103"/><polygon fill="#181818" points="212.75,652.0103,216.75,662.0103,220.75,652.0103,216.75,656.0103" style="stroke:#181818;stroke-width:1.0;"/><line style="stroke:#181818;stroke-width:1.0;" x1="216.75" x2="216.75" y1="572.8473" y2="598.3383"/><polygon fill="#181818" points="212.75,588.3383,216.75,598.3383,220.75,588.3383,216.75,592.3383" style="stroke:#181818;stroke-width:1.0;"/><line style="stroke:#181818;stroke-width:1.0;" x1="277.75" x2="289.75" y1="560.8473" y2="560.8473"/><polygon fill="#181818" points="285.75,632.0103,289.75,642.0103,293.75,632.0103,289.75,636.0103" style="stroke:#181818;stroke-width:1.0;"/><line style="stroke:#181818;stroke-width:1.0;" x1="289.75" x2="289.75" y1="560.8473" y2="706.0103"/><line style="stroke:#181818;stroke-width:1.0;" x1="289.75" x2="216.75" y1="706.0103" y2="706.0103"/><line style="stroke:#181818;stroke-width:1.0;" x1="216.75" x2="216.75" y1="706.0103" y2="726.0103"/><polygon fill="#181818" points="212.75,716.0103,216.75,726.0103,220.75,716.0103,216.75,720.0103" style="stroke:#181818;stroke-width:1.0;"/><line style="stroke:#181818;stroke-width:1.0;" x1="216.75" x2="216.75" y1="528.8473" y2="548.8473"/><polygon fill="#181818" points="212.75,538.8473,216.75,548.8473,220.75,538.8473,216.75,542.8473" style="stroke:#181818;stroke-width:1.0;"/><line style="stroke:#181818;stroke-width:1.0;" x1="216.75" x2="216.75" y1="868.1895" y2="895.5175"/><polygon fill="#181818" points="212.75,885.5175,216.75,895.5175,220.75,885.5175,216.75,889.5175" style="stroke:#181818;stroke-width:1.0;"/><line style="stroke:#181818;stroke-width:1.0;" x1="216.75" x2="216.75" y1="806.3545" y2="831.8454"/><polygon fill="#181818" points="212.75,821.8454,216.75,831.8454,220.75,821.8454,216.75,825.8454" style="stroke:#181818;stroke-width:1.0;"/><line style="stroke:#181818;stroke-width:1.0;" x1="283.75" x2="295.75" y1="794.3545" y2="794.3545"/><polygon fill="#181818" points="291.75,865.5175,295.75,875.5175,299.75,865.5175,295.75,869.5175" style="stroke:#181818;stroke-width:1.0;"/><line style="stroke:#181818;stroke-width:1.0;" x1="295.75" x2="295.75" y1="794.3545" y2="939.5175"/><line style="stroke:#181818;stroke-width:1.0;" x1="295.75" x2="216.75" y1="939.5175" y2="939.5175"/><line style="stroke:#181818;stroke-width:1.0;" x1="216.75" x2="216.75" y1="939.5175" y2="959.5175"/><polygon fill="#181818" points="212.75,949.5175,216.75,959.5175,220.75,949.5175,216.75,953.5175" style="stroke:#181818;stroke-width:1.0;"/><line style="stroke:#181818;stroke-width:1.0;" x1="216.75" x2="216.75" y1="762.3545" y2="782.3545"/><polygon fill="#181818" points="212.75,772.3545,216.75,782.3545,220.75,772.3545,216.75,776.3545" style="stroke:#181818;stroke-width:1.0;"/><line style="stroke:#181818;stroke-width:1.0;" x1="111.5" x2="111.5" y1="1135.6966" y2="1170.6966"/><polygon fill="#181818" points="107.5,1160.6966,111.5,1170.6966,115.5,1160.6966,111.5,1164.6966" style="stroke:#181818;stroke-width:1.0;"/><line style="stroke:#181818;stroke-width:1.0;" x1="111.5" x2="111.5" y1="1327.8758" y2="1362.8758"/><polygon fill="#181818" points="107.5,1352.8758,111.5,1362.8758,115.5,1352.8758,111.5,1356.8758" style="stroke:#181818;stroke-width:1.0;"/><line style="stroke:#181818;stroke-width:1.0;" x1="111.5" x2="111.5" y1="1266.0408" y2="1291.5317"/><polygon fill="#181818" points="107.5,1281.5317,111.5,1291.5317,115.5,1281.5317,111.5,1285.5317" style="stroke:#181818;stroke-width:1.0;"/><line style="stroke:#181818;stroke-width:1.0;" x1="154" x2="176.5" y1="1254.0408" y2="1254.0408"/><polygon fill="#181818" points="172.5,1334.2038,176.5,1344.2038,180.5,1334.2038,176.5,1338.2038" style="stroke:#181818;stroke-width:1.0;"/><line style="stroke:#181818;stroke-width:1.0;" x1="176.5" x2="176.5" y1="1254.0408" y2="1424.8758"/><line style="stroke:#181818;stroke-width:1.0;" x1="176.5" x2="204.75" y1="1424.8758" y2="1424.8758"/><polygon fill="#181818" points="194.75,1420.8758,204.75,1424.8758,194.75,1428.8758,198.75,1424.8758" style="stroke:#181818;stroke-width:1.0;"/><line style="stroke:#181818;stroke-width:1.0;" x1="111.5" x2="111.5" y1="1207.0408" y2="1242.0408"/><polygon fill="#181818" points="107.5,1232.0408,111.5,1242.0408,115.5,1232.0408,111.5,1236.0408" style="stroke:#181818;stroke-width:1.0;"/><line style="stroke:#181818;stroke-width:1.0;" x1="322" x2="322" y1="1185.1876" y2="1220.1876"/><polygon fill="#181818" points="318,1210.1876,322,1220.1876,326,1210.1876,322,1214.1876" style="stroke:#181818;stroke-width:1.0;"/><line style="stroke:#181818;stroke-width:1.0;" x1="322" x2="322" y1="1123.3525" y2="1148.8435"/><polygon fill="#181818" points="318,1138.8435,322,1148.8435,326,1138.8435,322,1142.8435" style="stroke:#181818;stroke-width:1.0;"/><line style="stroke:#181818;stroke-width:1.0;" x1="412" x2="424" y1="1111.3525" y2="1111.3525"/><polygon fill="#181818" points="420,1262.8596,424,1272.8596,428,1262.8596,424,1266.8596" style="stroke:#181818;stroke-width:1.0;"/><line style="stroke:#181818;stroke-width:1.0;" x1="424" x2="424" y1="1111.3525" y2="1424.8758"/><line style="stroke:#181818;stroke-width:1.0;" x1="424" x2="228.75" y1="1424.8758" y2="1424.8758"/><polygon fill="#181818" points="238.75,1420.8758,228.75,1424.8758,238.75,1428.8758,234.75,1424.8758" style="stroke:#181818;stroke-width:1.0;"/><line style="stroke:#181818;stroke-width:1.0;" x1="153.75" x2="111.5" y1="1077.3525" y2="1077.3525"/><line style="stroke:#181818;stroke-width:1.0;" x1="111.5" x2="111.5" y1="1077.3525" y2="1099.3525"/><polygon fill="#181818" points="107.5,1089.3525,111.5,1099.3525,115.5,1089.3525,111.5,1093.3525" style="stroke:#181818;stroke-width:1.0;"/><line style="stroke:#181818;stroke-width:1.0;" x1="279.75" x2="322" y1="1077.3525" y2="1077.3525"/><line style="stroke:#181818;stroke-width:1.0;" x1="322" x2="322" y1="1077.3525" y2="1099.3525"/><polygon fill="#181818" points="318,1089.3525,322,1099.3525,326,1089.3525,322,1093.3525" style="stroke:#181818;stroke-width:1.0;"/><line style="stroke:#181818;stroke-width:1.0;" x1="216.75" x2="216.75" y1="1039.8616" y2="1065.3525"/><polygon fill="#181818" points="212.75,1055.3525,216.75,1065.3525,220.75,1055.3525,216.75,1059.3525" style="stroke:#181818;stroke-width:1.0;"/><line style="stroke:#181818;stroke-width:1.0;" x1="266.75" x2="444" y1="1027.8616" y2="1027.8616"/><polygon fill="#181818" points="440,1245.8596,444,1255.8596,448,1245.8596,444,1249.8596" style="stroke:#181818;stroke-width:1.0;"/><line style="stroke:#181818;stroke-width:1.0;" x1="444" x2="444" y1="1027.8616" y2="1468.8758"/><line style="stroke:#181818;stroke-width:1.0;" x1="444" x2="228.75" y1="1468.8758" y2="1468.8758"/><polygon fill="#181818" points="238.75,1464.8758,228.75,1468.8758,238.75,1472.8758,234.75,1468.8758" style="stroke:#181818;stroke-width:1.0;"/><line style="stroke:#181818;stroke-width:1.0;" x1="216.75" x2="216.75" y1="1436.8758" y2="1456.8758"/><polygon fill="#181818" points="212.75,1446.8758,216.75,1456.8758,220.75,1446.8758,216.75,1450.8758" style="stroke:#181818;stroke-width:1.0;"/><line style="stroke:#181818;stroke-width:1.0;" x1="216.75" x2="216.75" y1="995.8616" y2="1015.8616"/><polygon fill="#181818" points="212.75,1005.8616,216.75,1015.8616,220.75,1005.8616,216.75,1009.8616" style="stroke:#181818;stroke-width:1.0;"/><line style="stroke:#181818;stroke-width:1.0;" x1="216.75" x2="216.75" y1="1480.8758" y2="1500.8758"/><polygon fill="#181818" points="212.75,1490.8758,216.75,1500.8758,220.75,1490.8758,216.75,1494.8758" style="stroke:#181818;stroke-width:1.0;"/><line style="stroke:#181818;stroke-width:1.0;" x1="216.75" x2="216.75" y1="1537.2199" y2="1557.2199"/><polygon fill="#181818" points="212.75,1547.2199,216.75,1557.2199,220.75,1547.2199,216.75,1551.2199" style="stroke:#181818;stroke-width:1.0;"/><line style="stroke:#181818;stroke-width:1.0;" x1="216.75" x2="216.75" y1="1593.564" y2="1613.564"/><polygon fill="#181818" points="212.75,1603.564,216.75,1613.564,220.75,1603.564,216.75,1607.564" style="stroke:#181818;stroke-width:1.0;"/><line style="stroke:#181818;stroke-width:1.0;" x1="161.25" x2="144.25" y1="1681.9082" y2="1681.9082"/><line style="stroke:#181818;stroke-width:1.0;" x1="144.25" x2="144.25" y1="1681.9082" y2="1703.9082"/><polygon fill="#181818" points="140.25,1693.9082,144.25,1703.9082,148.25,1693.9082,144.25,1697.9082" style="stroke:#181818;stroke-width:1.0;"/><line style="stroke:#181818;stroke-width:1.0;" x1="272.25" x2="289.25" y1="1681.9082" y2="1681.9082"/><line style="stroke:#181818;stroke-width:1.0;" x1="289.25" x2="289.25" y1="1681.9082" y2="1703.9082"/><polygon fill="#181818" points="285.25,1693.9082,289.25,1703.9082,293.25,1693.9082,289.25,1697.9082" style="stroke:#181818;stroke-width:1.0;"/><line style="stroke:#181818;stroke-width:1.0;" x1="144.25" x2="144.25" y1="1740.2523" y2="1758.2523"/><line style="stroke:#181818;stroke-width:1.0;" x1="144.25" x2="204.75" y1="1758.2523" y2="1758.2523"/><polygon fill="#181818" points="194.75,1754.2523,204.75,1758.2523,194.75,1762.2523,198.75,1758.2523" style="stroke:#181818;stroke-width:1.0;"/><line style="stroke:#181818;stroke-width:1.0;" x1="289.25" x2="289.25" y1="1740.2523" y2="1758.2523"/><line style="stroke:#181818;stroke-width:1.0;" x1="289.25" x2="228.75" y1="1758.2523" y2="1758.2523"/><polygon fill="#181818" points="238.75,1754.2523,228.75,1758.2523,238.75,1762.2523,234.75,1758.2523" style="stroke:#181818;stroke-width:1.0;"/><line style="stroke:#181818;stroke-width:1.0;" x1="216.75" x2="216.75" y1="1649.9082" y2="1669.9082"/><polygon fill="#181818" points="212.75,1659.9082,216.75,1669.9082,220.75,1659.9082,216.75,1663.9082" style="stroke:#181818;stroke-width:1.0;"/><line style="stroke:#181818;stroke-width:1.0;" x1="216.75" x2="216.75" y1="1770.2523" y2="1790.2523"/><polygon fill="#181818" points="212.75,1780.2523,216.75,1790.2523,220.75,1780.2523,216.75,1784.2523" style="stroke:#181818;stroke-width:1.0;"/><line style="stroke:#181818;stroke-width:1.0;" x1="568.5" x2="568.5" y1="416.1591" y2="436.1591"/><polygon fill="#181818" points="564.5,426.1591,568.5,436.1591,572.5,426.1591,568.5,430.1591" style="stroke:#181818;stroke-width:1.0;"/><line style="stroke:#181818;stroke-width:1.0;" x1="271.625" x2="216.75" y1="354.8331" y2="354.8331"/><line style="stroke:#181818;stroke-width:1.0;" x1="216.75" x2="216.75" y1="354.8331" y2="379.815"/><polygon fill="#181818" points="212.75,369.815,216.75,379.815,220.75,369.815,216.75,373.815" style="stroke:#181818;stroke-width:1.0;"/><line style="stroke:#181818;stroke-width:1.0;" x1="513.625" x2="568.5" y1="354.8331" y2="354.8331"/><line style="stroke:#181818;stroke-width:1.0;" x1="568.5" x2="568.5" y1="354.8331" y2="379.815"/><polygon fill="#181818" points="564.5,369.815,568.5,379.815,572.5,369.815,568.5,373.815" style="stroke:#181818;stroke-width:1.0;"/><!--SRC=[hLHDRzim3BtxL_1eNxpr6cCO4hST2dH3aSiEsp0eDkC8bSI0ahVktu-I7STf3Ao7NMoAVEB78oaV58SiMsrHjL0_Fe3YpbVPwgZOuoT3EsNkZUfy7lL5bMLw3_bJD08o4tyi81pGGVu7VP41hEwLCJlLF4CWg6d72fWerBOjxrwmwGFcuWN01pfcQCHDxgZ8qBLwFpW_Ak_3WQdl3YaPm1Vj0wo_t7vtUyqY1dgMYDg3em1METMXHHUW8IkdzYgbKGyVOERxs_iVrSouZf4k0JTbwGGJGOyax3GayJl8XtyPTQcKc7Gzs4p4xPKsU9M5UDbYwDaDl5L9bLW0EFCWyi34AUXl5Pg3YGJaatWP-kk4-A_HFqUtmBqHcuqoSfbqMr5DmUC11lD2p8XuS05PDK7_Gl3elIPt3PHucrwRM2uxxJgmWfIsLYVh4vCz1kWzian8EaW-YNMsnGasTOBjKZgNfOwUrplYQNIgIJzoaoubJfQkntYEt4zzhh6SJT0RCzWOadLvOmQZjDopcb45MKnPD6Xi2pccbQF8LFAUc5fjj2o33wrsx-HBVOW_cOjatFOEn8sP9nJh7BPNkhUyzxC1kmHMsUkYJq3VDusqkShEPRrw5SPq_lcCfDj_0G00]--></g></svg>