<?xml version="1.0" encoding="us-ascii" standalone="no"?><svg xmlns="http://www.w3.org/2000/svg" xmlns:xlink="http://www.w3.org/1999/xlink" contentStyleType="text/css" height="1046px" preserveAspectRatio="none" style="width:1215px;height:1046px;background:#FFFFFF;" version="1.1" viewBox="0 0 1215 1046" width="1215px" zoomAndPan="magnify"><defs/><g><!--cluster Shell Environment--><g id="cluster_Shell Environment"><rect fill="none" height="112.14" rx="2.5" ry="2.5" style="stroke:#181818;stroke-width:1.0;" width="174" x="116" y="149.57"/><text fill="#000000" font-family="sans-serif" font-size="14" font-weight="bold" lengthAdjust="spacing" textLength="130" x="138" y="166.5359">Shell Environment</text></g><!--cluster Mulonda Binary--><g id="cluster_Mulonda Binary"><rect fill="none" height="467.94" rx="2.5" ry="2.5" style="stroke:#181818;stroke-width:1.0;" width="1202" x="7" y="312.71"/><text fill="#000000" font-family="sans-serif" font-size="14" font-weight="bold" lengthAdjust="spacing" textLength="112.6875" x="551.6563" y="329.6759">Mulonda Binary</text></g><!--cluster cmd--><g id="cluster_cmd"><rect fill="none" height="282.81" rx="2.5" ry="2.5" style="stroke:#181818;stroke-width:1.0;" width="260" x="31" y="473.84"/><text fill="#000000" font-family="sans-serif" font-size="14" font-weight="bold" lengthAdjust="spacing" textLength="30.3125" x="145.8438" y="490.8059">cmd</text></g><!--cluster internal--><g id="cluster_internal"><rect fill="none" height="93.06" rx="2.5" ry="2.5" style="stroke:#181818;stroke-width:1.0;" width="870" x="315" y="654.05"/><text fill="#000000" font-family="sans-serif" font-size="14" font-weight="bold" lengthAdjust="spacing" textLength="56.5" x="721.75" y="671.0159">internal</text></g><!--entity ShellAlias--><g id="elem_ShellAlias"><rect fill="#F1F1F1" height="58.1358" rx="2.5" ry="2.5" style="stroke:#181818;stroke-width:0.5;" width="143" x="131.5" y="187.57"/><text fill="#000000" font-family="sans-serif" font-size="14" lengthAdjust="spacing" textLength="69" x="141.5" y="212.5359">Shell Alias</text><text fill="#000000" font-family="sans-serif" font-size="14" lengthAdjust="spacing" textLength="123" x="141.5" y="231.6039">rm -&gt; mulonda rm</text></g><!--entity Main--><g id="elem_Main"><rect fill="#F1F1F1" height="58.1358" rx="2.5" ry="2.5" style="stroke:#181818;stroke-width:0.5;" width="113" x="146.5" y="350.71"/><text fill="#000000" font-family="sans-serif" font-size="14" lengthAdjust="spacing" textLength="55" x="156.5" y="375.6759">main.go</text><text fill="#000000" font-family="sans-serif" font-size="14" lengthAdjust="spacing" textLength="93" x="156.5" y="394.7439">cmd.Execute()</text></g><!--entity Root--><g id="elem_Root"><rect fill="#F1F1F1" height="77.2038" rx="2.5" ry="2.5" style="stroke:#181818;stroke-width:0.5;" width="144" x="131" y="511.84"/><text fill="#000000" font-family="sans-serif" font-size="14" lengthAdjust="spacing" textLength="91" x="141" y="536.8059">root.Execute()</text><text fill="#000000" font-family="sans-serif" font-size="14" lengthAdjust="spacing" textLength="124" x="141" y="555.8739">parseGlobalFlags()</text><text fill="#000000" font-family="sans-serif" font-size="14" lengthAdjust="spacing" textLength="96" x="141" y="574.9418">executeProxy()</text></g><!--entity Mgmt--><g id="elem_Mgmt"><rect fill="#F1F1F1" height="58.1358" rx="2.5" ry="2.5" style="stroke:#181818;stroke-width:0.5;" width="228" x="47" y="682.51"/><text fill="#000000" font-family="sans-serif" font-size="14" lengthAdjust="spacing" textLength="170" x="57" y="707.4759">Management Commands</text><text fill="#000000" font-family="sans-serif" font-size="14" lengthAdjust="spacing" textLength="208" x="57" y="726.5439">add/list/config/install/uninstall</text></g><!--entity Config--><g id="elem_Config"><rect fill="#F1F1F1" height="39.0679" rx="2.5" ry="2.5" style="stroke:#181818;stroke-width:0.5;" width="106" x="331" y="692.05"/><text fill="#000000" font-family="sans-serif" font-size="14" lengthAdjust="spacing" textLength="86" x="341" y="717.0159">config.Load()</text></g><!--entity Watchlist--><g id="elem_Watchlist"><rect fill="#F1F1F1" height="39.0679" rx="2.5" ry="2.5" style="stroke:#181818;stroke-width:0.5;" width="124" x="472" y="692.05"/><text fill="#000000" font-family="sans-serif" font-size="14" lengthAdjust="spacing" textLength="104" x="482" y="717.0159">watchlist.Load()</text></g><!--entity Matcher--><g id="elem_Matcher"><rect fill="#F1F1F1" height="39.0679" rx="2.5" ry="2.5" style="stroke:#181818;stroke-width:0.5;" width="160" x="631" y="692.05"/><text fill="#000000" font-family="sans-serif" font-size="14" lengthAdjust="spacing" textLength="140" x="641" y="717.0159">matcher.MatchRule()</text></g><!--entity Prompter--><g id="elem_Prompter"><rect fill="#F1F1F1" height="39.0679" rx="2.5" ry="2.5" style="stroke:#181818;stroke-width:0.5;" width="150" x="826" y="692.05"/><text fill="#000000" font-family="sans-serif" font-size="14" lengthAdjust="spacing" textLength="130" x="836" y="717.0159">prompter.Confirm()</text></g><!--entity Executor--><g id="elem_Executor"><rect fill="#F1F1F1" height="39.0679" rx="2.5" ry="2.5" style="stroke:#181818;stroke-width:0.5;" width="159" x="1010.5" y="692.05"/><text fill="#000000" font-family="sans-serif" font-size="14" lengthAdjust="spacing" textLength="139" x="1020.5" y="717.0159">executor.Command()</text></g><!--entity User--><g id="elem_User"><ellipse cx="203" cy="14" fill="#F1F1F1" rx="8" ry="8" style="stroke:#181818;stroke-width:0.5;"/><path d="M203,22 L203,49 M190,30 L216,30 M203,49 L190,64 M203,49 L216,64 " fill="none" style="stroke:#181818;stroke-width:0.5;"/><text fill="#000000" font-family="sans-serif" font-size="14" lengthAdjust="spacing" textLength="31" x="187.5" y="80.4659">User</text></g><!--entity OSExec--><g id="elem_OSExec"><rect fill="#F1F1F1" height="58.1358" rx="2.5" ry="2.5" style="stroke:#181818;stroke-width:0.5;" width="194" x="993" y="845.65"/><text fill="#000000" font-family="sans-serif" font-size="14" lengthAdjust="spacing" textLength="143" x="1003" y="870.6159">OS Process Execution</text><text fill="#000000" font-family="sans-serif" font-size="14" lengthAdjust="spacing" textLength="174" x="1003" y="889.6839">(PATH + binary resolution)</text></g><!--entity External--><g id="elem_External"><rect fill="#F1F1F1" height="58.1358" rx="2.5" ry="2.5" style="stroke:#181818;stroke-width:0.5;" width="161" x="1009.5" y="982.78"/><text fill="#000000" font-family="sans-serif" font-size="14" lengthAdjust="spacing" textLength="128" x="1019.5" y="1007.7459">External Command</text><text fill="#000000" font-family="sans-serif" font-size="14" lengthAdjust="spacing" textLength="141" x="1019.5" y="1026.8139">(rm/chmod/mv/cp/...)</text></g><!--link User to ShellAlias--><g id="link_User_ShellAlias"><path d="M203,84.95 C203,116.14 203,153.2 203,181.23 " fill="none" id="User-to-ShellAlias" style="stroke:#181818;stroke-width:1.0;"/><polygon fill="#181818" points="203,187.23,207,178.23,203,182.23,199,178.23,203,187.23" style="stroke:#181818;stroke-width:1.0;"/><text fill="#000000" font-family="sans-serif" font-size="13" lengthAdjust="spacing" textLength="97" x="204" y="129.467">types command</text></g><!--link ShellAlias to Main--><g id="link_ShellAlias_Main"><path d="M203,246.08 C203,275.44 203,314.99 203,344.35 " fill="none" id="ShellAlias-to-Main" style="stroke:#181818;stroke-width:1.0;"/><polygon fill="#181818" points="203,350.35,207,341.35,203,345.35,199,341.35,203,350.35" style="stroke:#181818;stroke-width:1.0;"/><text fill="#000000" font-family="sans-serif" font-size="13" lengthAdjust="spacing" textLength="103" x="204" y="292.607">invokes mulonda</text></g><!--link Main to Root--><g id="link_Main_Root"><path d="M203,409.01 C203,437.14 203,474.52 203,505.62 " fill="none" id="Main-to-Root" style="stroke:#181818;stroke-width:1.0;"/><polygon fill="#181818" points="203,511.62,207,502.62,203,506.62,199,502.62,203,511.62" style="stroke:#181818;stroke-width:1.0;"/><text fill="#000000" font-family="sans-serif" font-size="13" lengthAdjust="spacing" textLength="95" x="204" y="453.737">route execution</text></g><!--link Root to Mgmt--><g id="link_Root_Mgmt"><path d="M144.96,589.51 C136.05,598.1 128.13,608 123,619.05 C113.29,639.96 120.7546,659.12 133.3146,677.34 " fill="none" id="Root-to-Mgmt" style="stroke:#181818;stroke-width:1.0;"/><polygon fill="#181818" points="136.72,682.28,134.9052,672.5998,133.8822,678.1634,128.3186,677.1403,136.72,682.28" style="stroke:#181818;stroke-width:1.0;"/><text fill="#000000" font-family="sans-serif" font-size="13" lengthAdjust="spacing" textLength="177" x="124" y="633.947">if management subcommand</text></g><!--link Root to Config--><g id="link_Root_Config"><path d="M267.16,589.49 C280.52,598.51 294.13,608.57 306,619.05 C331.36,641.42 352.2734,667.32 366.8434,686.86 " fill="none" id="Root-to-Config" style="stroke:#181818;stroke-width:1.0;"/><polygon fill="#181818" points="370.43,691.67,368.2568,682.0639,367.4412,687.6616,361.8434,686.846,370.43,691.67" style="stroke:#181818;stroke-width:1.0;"/><text fill="#000000" font-family="sans-serif" font-size="13" lengthAdjust="spacing" textLength="117" x="325.93" y="633.947">load runtime config</text></g><!--link Root to Watchlist--><g id="link_Root_Watchlist"><path d="M275.22,559.9 C327.42,568.57 397.96,585.71 452,619.05 C482.33,637.75 504.6097,666.0361 518.7797,686.9061 " fill="none" id="Root-to-Watchlist" style="stroke:#181818;stroke-width:1.0;"/><polygon fill="#181818" points="522.15,691.87,520.4038,682.1772,519.3414,687.7334,513.7852,686.671,522.15,691.87" style="stroke:#181818;stroke-width:1.0;"/><text fill="#000000" font-family="sans-serif" font-size="13" lengthAdjust="spacing" textLength="108" x="476.89" y="633.947">load merged rules</text></g><!--link Root to Matcher--><g id="link_Root_Matcher"><path d="M275.24,553.44 C356.1,558.02 489.47,572.67 594,619.05 C633.61,636.62 667.3575,666.3273 688.8075,687.5773 " fill="none" id="Root-to-Matcher" style="stroke:#181818;stroke-width:1.0;"/><polygon fill="#181818" points="693.07,691.8,689.4914,682.6243,689.5179,688.2811,683.8612,688.3076,693.07,691.8" style="stroke:#181818;stroke-width:1.0;"/><text fill="#000000" font-family="sans-serif" font-size="13" lengthAdjust="spacing" textLength="170" x="626.92" y="633.947">evaluate command and args</text></g><!--link Root to Prompter--><g id="link_Root_Prompter"><path d="M275.43,553.76 C414.53,559.16 713.46,575.57 806,619.05 C841.03,635.51 867.5751,665.3463 884.0451,686.9763 " fill="none" id="Root-to-Prompter" style="stroke:#181818;stroke-width:1.0;"/><polygon fill="#181818" points="887.68,691.75,885.4101,682.1663,884.6509,687.772,879.0453,687.0128,887.68,691.75" style="stroke:#181818;stroke-width:1.0;"/><text fill="#000000" font-family="sans-serif" font-size="13" lengthAdjust="spacing" textLength="120" x="834.39" y="633.947">confirm (interactive)</text></g><!--link Root to Executor--><g id="link_Root_Executor"><path d="M275.28,553.01 C439.89,557.36 838.09,572.51 963,619.05 C1006.04,635.08 1043.2176,665.7419 1066.4976,687.5119 " fill="none" id="Root-to-Executor" style="stroke:#181818;stroke-width:1.0;"/><polygon fill="#181818" points="1070.88,691.61,1067.0385,682.5412,1067.228,688.1949,1061.5743,688.3844,1070.88,691.61" style="stroke:#181818;stroke-width:1.0;"/><text fill="#000000" font-family="sans-serif" font-size="13" lengthAdjust="spacing" textLength="86" x="1002.24" y="633.947">create process</text></g><!--link Executor to OSExec--><g id="link_Executor_OSExec"><path d="M1090,731.38 C1090,759.44 1090,806.48 1090,839.3 " fill="none" id="Executor-to-OSExec" style="stroke:#181818;stroke-width:1.0;"/><polygon fill="#181818" points="1090,845.3,1094,836.3,1090,840.3,1086,836.3,1090,845.3" style="stroke:#181818;stroke-width:1.0;"/><text fill="#000000" font-family="sans-serif" font-size="13" lengthAdjust="spacing" textLength="91" x="1091" y="811.547">exec command</text></g><!--link OSExec to External--><g id="link_OSExec_External"><path d="M1090,904.05 C1090,927.11 1090,953.51 1090,976.56 " fill="none" id="OSExec-to-External" style="stroke:#181818;stroke-width:1.0;"/><polygon fill="#181818" points="1090,982.56,1094,973.56,1090,977.56,1086,973.56,1090,982.56" style="stroke:#181818;stroke-width:1.0;"/><text fill="#000000" font-family="sans-serif" font-size="13" lengthAdjust="spacing" textLength="87" x="1091" y="948.677">run real binary</text></g><!--SRC=[RPHDRzim38Rl-XL4JYc6slSU1dH5jXqMD6Wsx9AB8gkE47qOafmb6FhVHqgMxNez11R8Hoz9yKN2MTcEUsv0EDCvAstSnvkMuAM8tBPQiZ0Y7HTdtiebmBY8piEl83rZOnXM-vFK6ZRsehop1fLNy9V1LAWGZrhnSB3UmFrdCBrsjk7WpGfuW4GaWBqnDZG0g-r0VL6M-zj_keOhMxNkO8LfgirLYZxAzLqIt6AA8JrA8PBllrFmpiNfve4U8CXlsXsv_gfv6oWcSthdtVKsgB_WjQNKbbiiHFF3apE6smQ7vKrJQnLYBPnzLMsjR8XSwxgtmoatsngIUtlNiB9HUilr1rrdiUg7uytGq5EABBa_F8eJbP-ZlqjmIHjAI5zjwVlIw-afKto9TnxFs6ALQdipqBiXlCJpAph2q-CC-6O8f_7n0MOtdlSa9cGeb7BsODUxnv_VuHCSaoNGdi7fbCfwptjYvpARQtx7iXMKyAOM9-EQsbngqTLLLPLcCieOcHpkqQUJCU41ugsJWOOY7JPB4KcEGqRPYpiZDHYSfJ3boJEOzmwz1B8Cn5YA9m5q0GcyWfci5FfZgJU2UTc8Qjmg-Dv6PIHaKqpKkES26kbRIRoMOLOrRnSXUU6wvr6M0I7zV3k3otAH5ddhi4u-nRy6TP5t4rdsIgINfDhbNR8nGrXU5nMdJvbqY6QTONiFD2Yk6uzvzUmV]--></g></svg>