<?xml version="1.0" encoding="us-ascii" standalone="no"?><svg xmlns="http://www.w3.org/2000/svg" xmlns:xlink="http://www.w3.org/1999/xlink" contentStyleType="text/css" height="715px" preserveAspectRatio="none" style="width:1688px;height:715px;background:#FFFFFF;" version="1.1" viewBox="0 0 1688 715" width="1688px" zoomAndPan="magnify"><defs/><g><!--cluster cmd--><g id="cluster_cmd"><path d="M766.5,6.602 L797.8125,6.602 A3.75,3.75 0 0 1 800.3125,9.102 L807.3125,31.6699 L1113.5,31.6699 A2.5,2.5 0 0 1 1116,34.1699 L1116,201.442 A2.5,2.5 0 0 1 1113.5,203.942 L766.5,203.942 A2.5,2.5 0 0 1 764,201.442 L764,9.102 A2.5,2.5 0 0 1 766.5,6.602 " fill="none" style="stroke:#000000;stroke-width:1.5;"/><line style="stroke:#000000;stroke-width:1.5;" x1="764" x2="807.3125" y1="31.6699" y2="31.6699"/><text fill="#000000" font-family="sans-serif" font-size="14" font-weight="bold" lengthAdjust="spacing" textLength="30.3125" x="768" y="23.5679">cmd</text></g><!--cluster internal--><g id="cluster_internal"><path d="M8.5,254.942 L66,254.942 A3.75,3.75 0 0 1 68.5,257.442 L75.5,280.0099 L1678.5,280.0099 A2.5,2.5 0 0 1 1681,282.5099 L1681,705.982 A2.5,2.5 0 0 1 1678.5,708.482 L8.5,708.482 A2.5,2.5 0 0 1 6,705.982 L6,257.442 A2.5,2.5 0 0 1 8.5,254.942 " fill="none" style="stroke:#000000;stroke-width:1.5;"/><line style="stroke:#000000;stroke-width:1.5;" x1="6" x2="75.5" y1="280.0099" y2="280.0099"/><text fill="#000000" font-family="sans-serif" font-size="14" font-weight="bold" lengthAdjust="spacing" textLength="56.5" x="10" y="271.9079">internal</text></g><!--cluster config--><g id="cluster_config"><path d="M32.5,310.472 L78.125,310.472 A3.75,3.75 0 0 1 80.625,312.972 L87.625,335.5399 L510.5,335.5399 A2.5,2.5 0 0 1 513,338.0399 L513,643.842 A2.5,2.5 0 0 1 510.5,646.342 L32.5,646.342 A2.5,2.5 0 0 1 30,643.842 L30,312.972 A2.5,2.5 0 0 1 32.5,310.472 " fill="none" style="stroke:#000000;stroke-width:1.5;"/><line style="stroke:#000000;stroke-width:1.5;" x1="30" x2="87.625" y1="335.5399" y2="335.5399"/><text fill="#000000" font-family="sans-serif" font-size="14" font-weight="bold" lengthAdjust="spacing" textLength="44.625" x="34" y="327.4379">config</text></g><!--cluster watchlist--><g id="cluster_watchlist"><path d="M539.5,310.472 L604.4375,310.472 A3.75,3.75 0 0 1 606.9375,312.972 L613.9375,335.5399 L734.5,335.5399 A2.5,2.5 0 0 1 737,338.0399 L737,681.982 A2.5,2.5 0 0 1 734.5,684.482 L539.5,684.482 A2.5,2.5 0 0 1 537,681.982 L537,312.972 A2.5,2.5 0 0 1 539.5,310.472 " fill="none" style="stroke:#000000;stroke-width:1.5;"/><line style="stroke:#000000;stroke-width:1.5;" x1="537" x2="613.9375" y1="335.5399" y2="335.5399"/><text fill="#000000" font-family="sans-serif" font-size="14" font-weight="bold" lengthAdjust="spacing" textLength="63.9375" x="541" y="327.4379">watchlist</text></g><!--cluster matcher--><g id="cluster_matcher"><path d="M763.5,300.942 L823.5625,300.942 A3.75,3.75 0 0 1 826.0625,303.442 L833.0625,326.0099 L1116.5,326.0099 A2.5,2.5 0 0 1 1119,328.5099 L1119,457.642 A2.5,2.5 0 0 1 1116.5,460.142 L763.5,460.142 A2.5,2.5 0 0 1 761,457.642 L761,303.442 A2.5,2.5 0 0 1 763.5,300.942 " fill="none" style="stroke:#000000;stroke-width:1.5;"/><line style="stroke:#000000;stroke-width:1.5;" x1="761" x2="833.0625" y1="326.0099" y2="326.0099"/><text fill="#000000" font-family="sans-serif" font-size="14" font-weight="bold" lengthAdjust="spacing" textLength="59.0625" x="765" y="317.9079">matcher</text></g><!--cluster prompter--><g id="cluster_prompter"><path d="M1145.5,320.002 L1214,320.002 A3.75,3.75 0 0 1 1216.5,322.502 L1223.5,345.0699 L1348.5,345.0699 A2.5,2.5 0 0 1 1351,347.5699 L1351,438.572 A2.5,2.5 0 0 1 1348.5,441.072 L1145.5,441.072 A2.5,2.5 0 0 1 1143,438.572 L1143,322.502 A2.5,2.5 0 0 1 1145.5,320.002 " fill="none" style="stroke:#000000;stroke-width:1.5;"/><line style="stroke:#000000;stroke-width:1.5;" x1="1143" x2="1223.5" y1="345.0699" y2="345.0699"/><text fill="#000000" font-family="sans-serif" font-size="14" font-weight="bold" lengthAdjust="spacing" textLength="67.5" x="1147" y="336.9679">prompter</text></g><!--cluster executor--><g id="cluster_executor"><path d="M1377.5,320.002 L1440,320.002 A3.75,3.75 0 0 1 1442.5,322.502 L1449.5,345.0699 L1654.5,345.0699 A2.5,2.5 0 0 1 1657,347.5699 L1657,438.572 A2.5,2.5 0 0 1 1654.5,441.072 L1377.5,441.072 A2.5,2.5 0 0 1 1375,438.572 L1375,322.502 A2.5,2.5 0 0 1 1377.5,320.002 " fill="none" style="stroke:#000000;stroke-width:1.5;"/><line style="stroke:#000000;stroke-width:1.5;" x1="1375" x2="1449.5" y1="345.0699" y2="345.0699"/><text fill="#000000" font-family="sans-serif" font-size="14" font-weight="bold" lengthAdjust="spacing" textLength="61.5" x="1379" y="336.9679">executor</text></g><!--class RootCommand--><g id="elem_RootCommand"><rect codeLine="4" fill="#F1F1F1" height="143.3396" id="RootCommand" rx="2.5" ry="2.5" style="stroke:#181818;stroke-width:0.5;" width="321" x="779.5" y="44.602"/><ellipse cx="886.25" cy="60.602" fill="#ADD1B2" rx="11" ry="11" style="stroke:#181818;stroke-width:1.0;"/><path d="M886.3594,56.1332 Q885.4375,56.1332 884.7031,56.4457 Q883.9844,56.7582 883.4844,57.352 Q882.9844,57.9301 882.7031,58.8051 Q882.4375,59.6801 882.4375,60.7739 Q882.4375,62.2114 882.875,63.2582 Q883.3281,64.3051 884.1719,64.852 Q885.0313,65.3989 886.3438,65.3989 Q887.125,65.3989 887.8125,65.2739 Q888.5156,65.1332 889.5156,64.8207 L889.5156,66.6957 Q888.6563,67.0239 887.8906,67.1489 Q887.1406,67.2739 886.125,67.2739 Q884.2031,67.2739 882.8906,66.477 Q881.5938,65.6645 880.9375,64.1957 Q880.2813,62.7114 880.2813,60.7426 Q880.2813,59.3207 880.6719,58.1489 Q881.0781,56.9614 881.8594,56.0864 Q882.6406,55.2114 883.7813,54.7426 Q884.9219,54.2582 886.3906,54.2582 Q887.3438,54.2582 888.2344,54.4614 Q889.1406,54.6489 890.0781,55.1176 L889.25,56.8989 Q888.4688,56.5239 887.8125,56.3364 Q887.1563,56.1332 886.3594,56.1332 Z " fill="#000000"/><text fill="#000000" font-family="sans-serif" font-size="14" lengthAdjust="spacing" textLength="99" x="906.75" y="66.034">RootCommand</text><line style="stroke:#181818;stroke-width:0.5;" x1="780.5" x2="1099.5" y1="76.602" y2="76.602"/><line style="stroke:#181818;stroke-width:0.5;" x1="780.5" x2="1099.5" y1="84.602" y2="84.602"/><text fill="#000000" font-family="sans-serif" font-size="14" lengthAdjust="spacing" textLength="68" x="785.5" y="103.5679">+Execute()</text><text fill="#000000" font-family="sans-serif" font-size="14" lengthAdjust="spacing" textLength="309" x="785.5" y="122.6358">-executeProxy(configPath, watchlistPath, args)</text><text fill="#000000" font-family="sans-serif" font-size="14" lengthAdjust="spacing" textLength="159" x="785.5" y="141.7038">-parseGlobalFlags(args)</text><text fill="#000000" font-family="sans-serif" font-size="14" lengthAdjust="spacing" textLength="221" x="785.5" y="160.7717">-isManagementCommand(name)</text><text fill="#000000" font-family="sans-serif" font-size="14" lengthAdjust="spacing" textLength="147" x="785.5" y="179.8396">-isInteractiveSession()</text></g><!--class Config--><g id="elem_Config"><rect codeLine="14" fill="#F1F1F1" height="86.1358" id="Config" rx="2.5" ry="2.5" style="stroke:#181818;stroke-width:0.5;" width="276" x="46" y="348.472"/><ellipse cx="157.75" cy="364.472" fill="#ADD1B2" rx="11" ry="11" style="stroke:#181818;stroke-width:1.0;"/><path d="M157.8594,360.0032 Q156.9375,360.0032 156.2031,360.3157 Q155.4844,360.6282 154.9844,361.222 Q154.4844,361.8001 154.2031,362.6751 Q153.9375,363.5501 153.9375,364.6439 Q153.9375,366.0814 154.375,367.1282 Q154.8281,368.1751 155.6719,368.722 Q156.5313,369.2689 157.8438,369.2689 Q158.625,369.2689 159.3125,369.1439 Q160.0156,369.0032 161.0156,368.6907 L161.0156,370.5657 Q160.1563,370.8939 159.3906,371.0189 Q158.6406,371.1439 157.625,371.1439 Q155.7031,371.1439 154.3906,370.347 Q153.0938,369.5345 152.4375,368.0657 Q151.7813,366.5814 151.7813,364.6126 Q151.7813,363.1907 152.1719,362.0189 Q152.5781,360.8314 153.3594,359.9564 Q154.1406,359.0814 155.2813,358.6126 Q156.4219,358.1282 157.8906,358.1282 Q158.8438,358.1282 159.7344,358.3314 Q160.6406,358.5189 161.5781,358.9876 L160.75,360.7689 Q159.9688,360.3939 159.3125,360.2064 Q158.6563,360.0032 157.8594,360.0032 Z " fill="#000000"/><text fill="#000000" font-family="sans-serif" font-size="14" lengthAdjust="spacing" textLength="44" x="178.25" y="369.904">Config</text><line style="stroke:#181818;stroke-width:0.5;" x1="47" x2="321" y1="380.472" y2="380.472"/><text fill="#000000" font-family="sans-serif" font-size="14" lengthAdjust="spacing" textLength="149" x="52" y="399.4379">+TimeoutSeconds : int</text><text fill="#000000" font-family="sans-serif" font-size="14" lengthAdjust="spacing" textLength="264" x="52" y="418.5058">+NonInteractive : NonInteractiveConfig</text><line style="stroke:#181818;stroke-width:0.5;" x1="47" x2="321" y1="426.6078" y2="426.6078"/></g><!--class NonInteractiveConfig--><g id="elem_NonInteractiveConfig"><rect codeLine="19" fill="#F1F1F1" height="67.0679" id="NonInteractiveConfig" rx="2.5" ry="2.5" style="stroke:#181818;stroke-width:0.5;" width="176" x="96" y="563.282"/><ellipse cx="111" cy="579.282" fill="#ADD1B2" rx="11" ry="11" style="stroke:#181818;stroke-width:1.0;"/><path d="M111.1094,574.8132 Q110.1875,574.8132 109.4531,575.1257 Q108.7344,575.4382 108.2344,576.032 Q107.7344,576.6101 107.4531,577.4851 Q107.1875,578.3601 107.1875,579.4539 Q107.1875,580.8914 107.625,581.9382 Q108.0781,582.9851 108.9219,583.532 Q109.7813,584.0789 111.0938,584.0789 Q111.875,584.0789 112.5625,583.9539 Q113.2656,583.8132 114.2656,583.5007 L114.2656,585.3757 Q113.4063,585.7039 112.6406,585.8289 Q111.8906,585.9539 110.875,585.9539 Q108.9531,585.9539 107.6406,585.157 Q106.3438,584.3445 105.6875,582.8757 Q105.0313,581.3914 105.0313,579.4226 Q105.0313,578.0007 105.4219,576.8289 Q105.8281,575.6414 106.6094,574.7664 Q107.3906,573.8914 108.5313,573.4226 Q109.6719,572.9382 111.1406,572.9382 Q112.0938,572.9382 112.9844,573.1414 Q113.8906,573.3289 114.8281,573.7976 L114,575.5789 Q113.2188,575.2039 112.5625,575.0164 Q111.9063,574.8132 111.1094,574.8132 Z " fill="#000000"/><text fill="#000000" font-family="sans-serif" font-size="14" lengthAdjust="spacing" textLength="144" x="125" y="584.714">NonInteractiveConfig</text><line style="stroke:#181818;stroke-width:0.5;" x1="97" x2="271" y1="595.282" y2="595.282"/><text fill="#000000" font-family="sans-serif" font-size="14" lengthAdjust="spacing" textLength="134" x="102" y="614.2479">+Passthrough : bool</text><line style="stroke:#181818;stroke-width:0.5;" x1="97" x2="271" y1="622.3499" y2="622.3499"/></g><!--class ConfigLoader--><g id="elem_ConfigLoader"><rect codeLine="23" fill="#F1F1F1" height="67.0679" id="ConfigLoader" rx="2.5" ry="2.5" style="stroke:#181818;stroke-width:0.5;" width="139" x="357.5" y="358.002"/><ellipse cx="380.15" cy="374.002" fill="#ADD1B2" rx="11" ry="11" style="stroke:#181818;stroke-width:1.0;"/><path d="M380.2594,369.5332 Q379.3375,369.5332 378.6031,369.8457 Q377.8844,370.1582 377.3844,370.752 Q376.8844,371.3301 376.6031,372.2051 Q376.3375,373.0801 376.3375,374.1739 Q376.3375,375.6114 376.775,376.6582 Q377.2281,377.7051 378.0719,378.252 Q378.9313,378.7989 380.2438,378.7989 Q381.025,378.7989 381.7125,378.6739 Q382.4156,378.5332 383.4156,378.2207 L383.4156,380.0957 Q382.5563,380.4239 381.7906,380.5489 Q381.0406,380.6739 380.025,380.6739 Q378.1031,380.6739 376.7906,379.877 Q375.4938,379.0645 374.8375,377.5957 Q374.1813,376.1114 374.1813,374.1426 Q374.1813,372.7207 374.5719,371.5489 Q374.9781,370.3614 375.7594,369.4864 Q376.5406,368.6114 377.6813,368.1426 Q378.8219,367.6582 380.2906,367.6582 Q381.2438,367.6582 382.1344,367.8614 Q383.0406,368.0489 383.9781,368.5176 L383.15,370.2989 Q382.3688,369.9239 381.7125,369.7364 Q381.0563,369.5332 380.2594,369.5332 Z " fill="#000000"/><text fill="#000000" font-family="sans-serif" font-size="14" lengthAdjust="spacing" textLength="90" x="395.85" y="379.434">ConfigLoader</text><line style="stroke:#181818;stroke-width:0.5;" x1="358.5" x2="495.5" y1="390.002" y2="390.002"/><line style="stroke:#181818;stroke-width:0.5;" x1="358.5" x2="495.5" y1="398.002" y2="398.002"/><text fill="#000000" font-family="sans-serif" font-size="14" lengthAdjust="spacing" textLength="127" x="363.5" y="416.9679">+Load(path) Config</text></g><!--class Rule--><g id="elem_Rule"><rect codeLine="29" fill="#F1F1F1" height="143.3396" id="Rule" rx="2.5" ry="2.5" style="stroke:#181818;stroke-width:0.5;" width="169" x="552.5" y="525.142"/><ellipse cx="617.75" cy="541.142" fill="#ADD1B2" rx="11" ry="11" style="stroke:#181818;stroke-width:1.0;"/><path d="M617.8594,536.6732 Q616.9375,536.6732 616.2031,536.9857 Q615.4844,537.2982 614.9844,537.892 Q614.4844,538.4701 614.2031,539.3451 Q613.9375,540.2201 613.9375,541.3139 Q613.9375,542.7514 614.375,543.7982 Q614.8281,544.8451 615.6719,545.392 Q616.5313,545.9389 617.8438,545.9389 Q618.625,545.9389 619.3125,545.8139 Q620.0156,545.6732 621.0156,545.3607 L621.0156,547.2357 Q620.1563,547.5639 619.3906,547.6889 Q618.6406,547.8139 617.625,547.8139 Q615.7031,547.8139 614.3906,547.017 Q613.0938,546.2045 612.4375,544.7357 Q611.7813,543.2514 611.7813,541.2826 Q611.7813,539.8607 612.1719,538.6889 Q612.5781,537.5014 613.3594,536.6264 Q614.1406,535.7514 615.2813,535.2826 Q616.4219,534.7982 617.8906,534.7982 Q618.8438,534.7982 619.7344,535.0014 Q620.6406,535.1889 621.5781,535.6576 L620.75,537.4389 Q619.9688,537.0639 619.3125,536.8764 Q618.6563,536.6732 617.8594,536.6732 Z " fill="#000000"/><text fill="#000000" font-family="sans-serif" font-size="14" lengthAdjust="spacing" textLength="30" x="638.25" y="546.574">Rule</text><line style="stroke:#181818;stroke-width:0.5;" x1="553.5" x2="720.5" y1="557.142" y2="557.142"/><text fill="#000000" font-family="sans-serif" font-size="14" lengthAdjust="spacing" textLength="129" x="558.5" y="576.1079">+Command : string</text><text fill="#000000" font-family="sans-serif" font-size="14" lengthAdjust="spacing" textLength="157" x="558.5" y="595.1758">+FlagsContain : []string</text><text fill="#000000" font-family="sans-serif" font-size="14" lengthAdjust="spacing" textLength="143" x="558.5" y="614.2438">+ArgsMatch : []string</text><text fill="#000000" font-family="sans-serif" font-size="14" lengthAdjust="spacing" textLength="95" x="558.5" y="633.3117">+MinArgs : int</text><text fill="#000000" font-family="sans-serif" font-size="14" lengthAdjust="spacing" textLength="118" x="558.5" y="652.3796">+Warning : string</text><line style="stroke:#181818;stroke-width:0.5;" x1="553.5" x2="720.5" y1="660.4816" y2="660.4816"/></g><!--class WatchlistLoader--><g id="elem_WatchlistLoader"><rect codeLine="37" fill="#F1F1F1" height="86.1358" id="WatchlistLoader" rx="2.5" ry="2.5" style="stroke:#181818;stroke-width:0.5;" width="161" x="558.5" y="348.472"/><ellipse cx="582.95" cy="364.472" fill="#ADD1B2" rx="11" ry="11" style="stroke:#181818;stroke-width:1.0;"/><path d="M583.0594,360.0032 Q582.1375,360.0032 581.4031,360.3157 Q580.6844,360.6282 580.1844,361.222 Q579.6844,361.8001 579.4031,362.6751 Q579.1375,363.5501 579.1375,364.6439 Q579.1375,366.0814 579.575,367.1282 Q580.0281,368.1751 580.8719,368.722 Q581.7313,369.2689 583.0438,369.2689 Q583.825,369.2689 584.5125,369.1439 Q585.2156,369.0032 586.2156,368.6907 L586.2156,370.5657 Q585.3563,370.8939 584.5906,371.0189 Q583.8406,371.1439 582.825,371.1439 Q580.9031,371.1439 579.5906,370.347 Q578.2938,369.5345 577.6375,368.0657 Q576.9813,366.5814 576.9813,364.6126 Q576.9813,363.1907 577.3719,362.0189 Q577.7781,360.8314 578.5594,359.9564 Q579.3406,359.0814 580.4813,358.6126 Q581.6219,358.1282 583.0906,358.1282 Q584.0438,358.1282 584.9344,358.3314 Q585.8406,358.5189 586.7781,358.9876 L585.95,360.7689 Q585.1688,360.3939 584.5125,360.2064 Q583.8563,360.0032 583.0594,360.0032 Z " fill="#000000"/><text fill="#000000" font-family="sans-serif" font-size="14" lengthAdjust="spacing" textLength="108" x="599.05" y="369.904">WatchlistLoader</text><line style="stroke:#181818;stroke-width:0.5;" x1="559.5" x2="718.5" y1="380.472" y2="380.472"/><line style="stroke:#181818;stroke-width:0.5;" x1="559.5" x2="718.5" y1="388.472" y2="388.472"/><text fill="#000000" font-family="sans-serif" font-size="14" lengthAdjust="spacing" textLength="123" x="564.5" y="407.4379">+Load(path) []Rule</text><text fill="#000000" font-family="sans-serif" font-size="14" lengthAdjust="spacing" textLength="149" x="564.5" y="426.5058">+Add(path, command)</text></g><!--class Matcher--><g id="elem_Matcher"><rect codeLine="44" fill="#F1F1F1" height="105.2038" id="Matcher" rx="2.5" ry="2.5" style="stroke:#181818;stroke-width:0.5;" width="326" x="777" y="338.942"/><ellipse cx="907.75" cy="354.942" fill="#ADD1B2" rx="11" ry="11" style="stroke:#181818;stroke-width:1.0;"/><path d="M907.8594,350.4732 Q906.9375,350.4732 906.2031,350.7857 Q905.4844,351.0982 904.9844,351.692 Q904.4844,352.2701 904.2031,353.1451 Q903.9375,354.0201 903.9375,355.1139 Q903.9375,356.5514 904.375,357.5982 Q904.8281,358.6451 905.6719,359.192 Q906.5313,359.7389 907.8438,359.7389 Q908.625,359.7389 909.3125,359.6139 Q910.0156,359.4732 911.0156,359.1607 L911.0156,361.0357 Q910.1563,361.3639 909.3906,361.4889 Q908.6406,361.6139 907.625,361.6139 Q905.7031,361.6139 904.3906,360.817 Q903.0938,360.0045 902.4375,358.5357 Q901.7813,357.0514 901.7813,355.0826 Q901.7813,353.6607 902.1719,352.4889 Q902.5781,351.3014 903.3594,350.4264 Q904.1406,349.5514 905.2813,349.0826 Q906.4219,348.5982 907.8906,348.5982 Q908.8438,348.5982 909.7344,348.8014 Q910.6406,348.9889 911.5781,349.4576 L910.75,351.2389 Q909.9688,350.8639 909.3125,350.6764 Q908.6563,350.4732 907.8594,350.4732 Z " fill="#000000"/><text fill="#000000" font-family="sans-serif" font-size="14" lengthAdjust="spacing" textLength="56" x="928.25" y="360.374">Matcher</text><line style="stroke:#181818;stroke-width:0.5;" x1="778" x2="1102" y1="370.942" y2="370.942"/><line style="stroke:#181818;stroke-width:0.5;" x1="778" x2="1102" y1="378.942" y2="378.942"/><text fill="#000000" font-family="sans-serif" font-size="14" lengthAdjust="spacing" textLength="314" x="783" y="397.9079">+MatchRule(command, args, rules) (Rule, bool)</text><text fill="#000000" font-family="sans-serif" font-size="14" lengthAdjust="spacing" textLength="270" x="783" y="416.9758">-ruleMatches(command, args, rule) bool</text><text fill="#000000" font-family="sans-serif" font-size="14" lengthAdjust="spacing" textLength="264" x="783" y="436.0438">-containsAnyArg(args, candidates) bool</text></g><!--class Prompter--><g id="elem_Prompter"><rect codeLine="52" fill="#F1F1F1" height="67.0679" id="Prompter" rx="2.5" ry="2.5" style="stroke:#181818;stroke-width:0.5;" width="175" x="1159.5" y="358.002"/><ellipse cx="1211.25" cy="374.002" fill="#ADD1B2" rx="11" ry="11" style="stroke:#181818;stroke-width:1.0;"/><path d="M1211.3594,369.5332 Q1210.4375,369.5332 1209.7031,369.8457 Q1208.9844,370.1582 1208.4844,370.752 Q1207.9844,371.3301 1207.7031,372.2051 Q1207.4375,373.0801 1207.4375,374.1739 Q1207.4375,375.6114 1207.875,376.6582 Q1208.3281,377.7051 1209.1719,378.252 Q1210.0313,378.7989 1211.3438,378.7989 Q1212.125,378.7989 1212.8125,378.6739 Q1213.5156,378.5332 1214.5156,378.2207 L1214.5156,380.0957 Q1213.6563,380.4239 1212.8906,380.5489 Q1212.1406,380.6739 1211.125,380.6739 Q1209.2031,380.6739 1207.8906,379.877 Q1206.5938,379.0645 1205.9375,377.5957 Q1205.2813,376.1114 1205.2813,374.1426 Q1205.2813,372.7207 1205.6719,371.5489 Q1206.0781,370.3614 1206.8594,369.4864 Q1207.6406,368.6114 1208.7813,368.1426 Q1209.9219,367.6582 1211.3906,367.6582 Q1212.3438,367.6582 1213.2344,367.8614 Q1214.1406,368.0489 1215.0781,368.5176 L1214.25,370.2989 Q1213.4688,369.9239 1212.8125,369.7364 Q1212.1563,369.5332 1211.3594,369.5332 Z " fill="#000000"/><text fill="#000000" font-family="sans-serif" font-size="14" lengthAdjust="spacing" textLength="63" x="1231.75" y="379.434">Prompter</text><line style="stroke:#181818;stroke-width:0.5;" x1="1160.5" x2="1333.5" y1="390.002" y2="390.002"/><line style="stroke:#181818;stroke-width:0.5;" x1="1160.5" x2="1333.5" y1="398.002" y2="398.002"/><text fill="#000000" font-family="sans-serif" font-size="14" lengthAdjust="spacing" textLength="163" x="1165.5" y="416.9679">+Confirm(message) bool</text></g><!--class Executor--><g id="elem_Executor"><rect codeLine="58" fill="#F1F1F1" height="67.0679" id="Executor" rx="2.5" ry="2.5" style="stroke:#181818;stroke-width:0.5;" width="250" x="1391" y="358.002"/><ellipse cx="1482.75" cy="374.002" fill="#ADD1B2" rx="11" ry="11" style="stroke:#181818;stroke-width:1.0;"/><path d="M1482.8594,369.5332 Q1481.9375,369.5332 1481.2031,369.8457 Q1480.4844,370.1582 1479.9844,370.752 Q1479.4844,371.3301 1479.2031,372.2051 Q1478.9375,373.0801 1478.9375,374.1739 Q1478.9375,375.6114 1479.375,376.6582 Q1479.8281,377.7051 1480.6719,378.252 Q1481.5313,378.7989 1482.8438,378.7989 Q1483.625,378.7989 1484.3125,378.6739 Q1485.0156,378.5332 1486.0156,378.2207 L1486.0156,380.0957 Q1485.1563,380.4239 1484.3906,380.5489 Q1483.6406,380.6739 1482.625,380.6739 Q1480.7031,380.6739 1479.3906,379.877 Q1478.0938,379.0645 1477.4375,377.5957 Q1476.7813,376.1114 1476.7813,374.1426 Q1476.7813,372.7207 1477.1719,371.5489 Q1477.5781,370.3614 1478.3594,369.4864 Q1479.1406,368.6114 1480.2813,368.1426 Q1481.4219,367.6582 1482.8906,367.6582 Q1483.8438,367.6582 1484.7344,367.8614 Q1485.6406,368.0489 1486.5781,368.5176 L1485.75,370.2989 Q1484.9688,369.9239 1484.3125,369.7364 Q1483.6563,369.5332 1482.8594,369.5332 Z " fill="#000000"/><text fill="#000000" font-family="sans-serif" font-size="14" lengthAdjust="spacing" textLength="58" x="1503.25" y="379.434">Executor</text><line style="stroke:#181818;stroke-width:0.5;" x1="1392" x2="1640" y1="390.002" y2="390.002"/><line style="stroke:#181818;stroke-width:0.5;" x1="1392" x2="1640" y1="398.002" y2="398.002"/><text fill="#000000" font-family="sans-serif" font-size="14" lengthAdjust="spacing" textLength="238" x="1397" y="416.9679">+Command(name, args) *exec.Cmd</text></g><!--link RootCommand to ConfigLoader--><g id="link_RootCommand_ConfigLoader"><path codeLine="63" d="M779.19,145.502 C700.97,164.832 608.63,196.422 537,246.942 C495.81,275.992 466.0206,319.8604 447.3006,352.4204 " fill="none" id="RootCommand-to-ConfigLoader" style="stroke:#181818;stroke-width:1.0;stroke-dasharray:7.0,7.0;"/><polygon fill="#181818" points="444.31,357.622,452.2636,351.8133,446.8022,353.2873,445.3282,347.8259,444.31,357.622" style="stroke:#181818;stroke-width:1.0;"/><text fill="#000000" font-family="sans-serif" font-size="13" lengthAdjust="spacing" textLength="27" x="576.56" y="234.839">uses</text></g><!--link RootCommand to WatchlistLoader--><g id="link_RootCommand_WatchlistLoader"><path codeLine="64" d="M833.06,188.332 C808.49,206.372 783.11,226.482 761,246.942 C727.27,278.162 697.4977,313.629 674.1777,343.559 " fill="none" id="RootCommand-to-WatchlistLoader" style="stroke:#181818;stroke-width:1.0;stroke-dasharray:7.0,7.0;"/><polygon fill="#181818" points="670.49,348.292,679.1768,343.651,673.5631,344.3478,672.8662,338.7341,670.49,348.292" style="stroke:#181818;stroke-width:1.0;"/><text fill="#000000" font-family="sans-serif" font-size="13" lengthAdjust="spacing" textLength="27" x="789.21" y="234.839">uses</text></g><!--link RootCommand to Matcher--><g id="link_RootCommand_Matcher"><path codeLine="65" d="M940,188.352 C940,235.482 940,290.242 940,332.802 " fill="none" id="RootCommand-to-Matcher" style="stroke:#181818;stroke-width:1.0;stroke-dasharray:7.0,7.0;"/><polygon fill="#181818" points="940,338.802,944,329.802,940,333.802,936,329.802,940,338.802" style="stroke:#181818;stroke-width:1.0;"/><text fill="#000000" font-family="sans-serif" font-size="13" lengthAdjust="spacing" textLength="27" x="941" y="234.839">uses</text></g><!--link RootCommand to Prompter--><g id="link_RootCommand_Prompter"><path codeLine="66" d="M1046.13,188.362 C1070.85,206.482 1096.51,226.612 1119,246.942 C1157.53,281.762 1192.699,322.6032 1217.339,352.9632 " fill="none" id="RootCommand-to-Prompter" style="stroke:#181818;stroke-width:1.0;stroke-dasharray:7.0,7.0;"/><polygon fill="#181818" points="1221.12,357.622,1218.5543,348.1132,1217.9692,353.7397,1212.3426,353.1545,1221.12,357.622" style="stroke:#181818;stroke-width:1.0;"/><text fill="#000000" font-family="sans-serif" font-size="13" lengthAdjust="spacing" textLength="27" x="1106.55" y="234.839">uses</text></g><!--link RootCommand to Executor--><g id="link_RootCommand_Executor"><path codeLine="67" d="M1100.9,151.662 C1179.46,172.452 1273.5,203.492 1351,246.942 C1404,276.652 1451.0509,320.9778 1482.0009,353.3078 " fill="none" id="RootCommand-to-Executor" style="stroke:#181818;stroke-width:1.0;stroke-dasharray:7.0,7.0;"/><polygon fill="#181818" points="1486.15,357.642,1482.8157,348.3747,1482.6924,354.0302,1477.0369,353.9069,1486.15,357.642" style="stroke:#181818;stroke-width:1.0;"/><text fill="#000000" font-family="sans-serif" font-size="13" lengthAdjust="spacing" textLength="27" x="1331.6" y="234.839">uses</text></g><!--reverse link Config to NonInteractiveConfig--><g id="link_Config_NonInteractiveConfig"><path codeLine="69" d="M184,446.662 C184,484.682 184,527.872 184,562.792 " fill="none" id="Config-backto-NonInteractiveConfig" style="stroke:#181818;stroke-width:1.0;"/><polygon fill="#181818" points="184,434.662,180,440.662,184,446.662,188,440.662,184,434.662" style="stroke:#181818;stroke-width:1.0;"/><text fill="#000000" font-family="sans-serif" font-size="13" lengthAdjust="spacing" textLength="7" x="176.4641" y="456.5177">1</text><text fill="#000000" font-family="sans-serif" font-size="13" lengthAdjust="spacing" textLength="7" x="176.3109" y="551.3866">1</text></g><!--link WatchlistLoader to Rule--><g id="link_WatchlistLoader_Rule"><path codeLine="70" d="M638.59,434.662 C638.33,460.712 638.0478,488.8123 637.7578,518.9323 " fill="none" id="WatchlistLoader-to-Rule" style="stroke:#181818;stroke-width:1.0;stroke-dasharray:7.0,7.0;"/><polygon fill="#181818" points="637.7,524.932,641.7865,515.9709,637.7481,519.9322,633.7868,515.8939,637.7,524.932" style="stroke:#181818;stroke-width:1.0;"/><text fill="#000000" font-family="sans-serif" font-size="13" lengthAdjust="spacing" textLength="81" x="639.12" y="491.039">returns []Rule</text></g><!--link Matcher to Rule--><g id="link_Matcher_Rule"><path codeLine="71" d="M862.36,444.622 C819.4,473.442 770.9429,505.9597 726.8729,535.5197 " fill="none" id="Matcher-to-Rule" style="stroke:#181818;stroke-width:1.0;stroke-dasharray:7.0,7.0;"/><polygon fill="#181818" points="721.89,538.862,731.5925,537.1705,726.0424,536.0768,727.1361,530.5266,721.89,538.862" style="stroke:#181818;stroke-width:1.0;"/><text fill="#000000" font-family="sans-serif" font-size="13" lengthAdjust="spacing" textLength="57" x="807.64" y="491.039">evaluates</text></g><!--SRC=[XLDDRzim3BtxLn0vELqIRDSS1WH1EnHOXc0Pq4FH0oEhZb1BCYIvQpVqlu-IB4zEdUqaY8zy_7YaVHAgHOCIM8FMRfmpujWvVikqEeXV73uMHOli2MiECoQh6Vmk8Fh2TwtTLak9gWfMW0_NBvnHT3aFtoMFtxtHBwybCJwAUe_kj82VwDYf4TR5BvhQzY5KZELV6dt4vgR1sfOP9kmE5LKYkKg9IuMI3_2jSjmWS-AP7xYrGgjGoLlnbdKXl9F2PXKBoZlQ1ajgveUGN7VkmCcnih06Yep8DwsoL8IC3P4c91wefpnIeZqvk9FHNNqYhgFMpJWsUd_LM76JOlolR6bwSyZIJVOv37iaNjVmn9L4N8Cb-LKThM7ynErGA8Bk7t9mGwhiFEyxP2UK1_DntQ5HXEVyMNTtgRoB3Tu_-6hxn5MqBe35glyXiFJCtEHjxw8f9GbVJrxsR74N5s38PkTGUcmH9EcNp0EHn4x5p9DyvChYxEn6lT94okZ4A41Kw3pxeFHazQtHidNZylUzxQzo9BsHfQHjf-Z_KSPxr2FAwzvsjWpXiFhBX2iVkDhAAb7dfxzQVHvlw1ewo-qxdtETBxWbXIx0mmGku4CxFLxqfpRxD8EhvJAyazTwNfud2qUo1iDTPvHDUvWgp3puCpQT5xNu0m00]--></g></svg>