<?xml version="1.0" encoding="us-ascii" standalone="no"?><svg xmlns="http://www.w3.org/2000/svg" xmlns:xlink="http://www.w3.org/1999/xlink" contentStyleType="text/css" height="1134px" preserveAspectRatio="none" style="width:1717px;height:1134px;background:#FFFFFF;" version="1.1" viewBox="0 0 1717 1134" width="1717px" zoomAndPan="magnify"><defs/><g><rect fill="none" height="774.4599" style="stroke:#000000;stroke-width:1.5;" width="1573.5" x="137" y="227.892"/><rect fill="none" height="362.0058" style="stroke:#000000;stroke-width:1.5;" width="1226.5" x="147" y="444.8341"/><rect fill="none" height="264.8878" style="stroke:#000000;stroke-width:1.5;" width="1206.5" x="157" y="534.9521"/><rect fill="none" height="68.3939" style="stroke:#000000;stroke-width:1.5;" width="217" x="167" y="625.0702"/><rect fill="none" height="68.3939" style="stroke:#000000;stroke-width:1.5;" width="314.9688" x="167" y="724.446"/><line style="stroke:#181818;stroke-width:0.5;stroke-dasharray:5.0,5.0;" x1="23" x2="23" y1="84.0679" y2="1051.0579"/><line style="stroke:#181818;stroke-width:0.5;stroke-dasharray:5.0,5.0;" x1="211" x2="211" y1="84.0679" y2="1051.0579"/><line style="stroke:#181818;stroke-width:0.5;stroke-dasharray:5.0,5.0;" x1="324" x2="324" y1="84.0679" y2="1051.0579"/><line style="stroke:#181818;stroke-width:0.5;stroke-dasharray:5.0,5.0;" x1="606.5" x2="606.5" y1="84.0679" y2="1051.0579"/><line style="stroke:#181818;stroke-width:0.5;stroke-dasharray:5.0,5.0;" x1="727.5" x2="727.5" y1="84.0679" y2="1051.0579"/><line style="stroke:#181818;stroke-width:0.5;stroke-dasharray:5.0,5.0;" x1="838.5" x2="838.5" y1="84.0679" y2="1051.0579"/><line style="stroke:#181818;stroke-width:0.5;stroke-dasharray:5.0,5.0;" x1="976.5" x2="976.5" y1="84.0679" y2="1051.0579"/><line style="stroke:#181818;stroke-width:0.5;stroke-dasharray:5.0,5.0;" x1="1133.5" x2="1133.5" y1="84.0679" y2="1051.0579"/><line style="stroke:#181818;stroke-width:0.5;stroke-dasharray:5.0,5.0;" x1="1285.5" x2="1285.5" y1="84.0679" y2="1051.0579"/><line style="stroke:#181818;stroke-width:0.5;stroke-dasharray:5.0,5.0;" x1="1473.5" x2="1473.5" y1="84.0679" y2="1051.0579"/><line style="stroke:#181818;stroke-width:0.5;stroke-dasharray:5.0,5.0;" x1="1647.5" x2="1647.5" y1="84.0679" y2="1051.0579"/><text fill="#000000" font-family="sans-serif" font-size="14" lengthAdjust="spacing" textLength="31" x="5" y="79.9659">User</text><ellipse cx="23.5" cy="13.5" fill="#E2E2F0" rx="8" ry="8" style="stroke:#181818;stroke-width:0.5;"/><path d="M23.5,21.5 L23.5,48.5 M10.5,29.5 L36.5,29.5 M23.5,48.5 L10.5,63.5 M23.5,48.5 L36.5,63.5 " fill="none" style="stroke:#181818;stroke-width:0.5;"/><text fill="#000000" font-family="sans-serif" font-size="14" lengthAdjust="spacing" textLength="31" x="5" y="1065.0238">User</text><ellipse cx="23.5" cy="1077.6258" fill="#E2E2F0" rx="8" ry="8" style="stroke:#181818;stroke-width:0.5;"/><path d="M23.5,1085.6258 L23.5,1112.6258 M10.5,1093.6258 L36.5,1093.6258 M23.5,1112.6258 L10.5,1127.6258 M23.5,1112.6258 L36.5,1127.6258 " fill="none" style="stroke:#181818;stroke-width:0.5;"/><rect fill="#E2E2F0" height="33.0679" rx="2.5" ry="2.5" style="stroke:#181818;stroke-width:0.5;" width="69" x="177" y="50"/><text fill="#000000" font-family="sans-serif" font-size="14" lengthAdjust="spacing" textLength="55" x="184" y="71.9659">main.go</text><rect fill="#E2E2F0" height="33.0679" rx="2.5" ry="2.5" style="stroke:#181818;stroke-width:0.5;" width="69" x="177" y="1050.0579"/><text fill="#000000" font-family="sans-serif" font-size="14" lengthAdjust="spacing" textLength="55" x="184" y="1072.0238">main.go</text><rect fill="#E2E2F0" height="33.0679" rx="2.5" ry="2.5" style="stroke:#181818;stroke-width:0.5;" width="99" x="275" y="50"/><text fill="#000000" font-family="sans-serif" font-size="14" lengthAdjust="spacing" textLength="85" x="282" y="71.9659">cmd.Execute</text><rect fill="#E2E2F0" height="33.0679" rx="2.5" ry="2.5" style="stroke:#181818;stroke-width:0.5;" width="99" x="275" y="1050.0579"/><text fill="#000000" font-family="sans-serif" font-size="14" lengthAdjust="spacing" textLength="85" x="282" y="1072.0238">cmd.Execute</text><rect fill="#E2E2F0" height="33.0679" rx="2.5" ry="2.5" style="stroke:#181818;stroke-width:0.5;" width="130" x="541.5" y="50"/><text fill="#000000" font-family="sans-serif" font-size="14" lengthAdjust="spacing" textLength="116" x="548.5" y="71.9659">parseGlobalFlags</text><rect fill="#E2E2F0" height="33.0679" rx="2.5" ry="2.5" style="stroke:#181818;stroke-width:0.5;" width="130" x="541.5" y="1050.0579"/><text fill="#000000" font-family="sans-serif" font-size="14" lengthAdjust="spacing" textLength="116" x="548.5" y="1072.0238">parseGlobalFlags</text><rect fill="#E2E2F0" height="33.0679" rx="2.5" ry="2.5" style="stroke:#181818;stroke-width:0.5;" width="92" x="681.5" y="50"/><text fill="#000000" font-family="sans-serif" font-size="14" lengthAdjust="spacing" textLength="78" x="688.5" y="71.9659">config.Load</text><rect fill="#E2E2F0" height="33.0679" rx="2.5" ry="2.5" style="stroke:#181818;stroke-width:0.5;" width="92" x="681.5" y="1050.0579"/><text fill="#000000" font-family="sans-serif" font-size="14" lengthAdjust="spacing" textLength="78" x="688.5" y="1072.0238">config.Load</text><rect fill="#E2E2F0" height="33.0679" rx="2.5" ry="2.5" style="stroke:#181818;stroke-width:0.5;" width="110" x="783.5" y="50"/><text fill="#000000" font-family="sans-serif" font-size="14" lengthAdjust="spacing" textLength="96" x="790.5" y="71.9659">watchlist.Load</text><rect fill="#E2E2F0" height="33.0679" rx="2.5" ry="2.5" style="stroke:#181818;stroke-width:0.5;" width="110" x="783.5" y="1050.0579"/><text fill="#000000" font-family="sans-serif" font-size="14" lengthAdjust="spacing" textLength="96" x="790.5" y="1072.0238">watchlist.Load</text><rect fill="#E2E2F0" height="33.0679" rx="2.5" ry="2.5" style="stroke:#181818;stroke-width:0.5;" width="146" x="903.5" y="50"/><text fill="#000000" font-family="sans-serif" font-size="14" lengthAdjust="spacing" textLength="132" x="910.5" y="71.9659">matcher.MatchRule</text><rect fill="#E2E2F0" height="33.0679" rx="2.5" ry="2.5" style="stroke:#181818;stroke-width:0.5;" width="146" x="903.5" y="1050.0579"/><text fill="#000000" font-family="sans-serif" font-size="14" lengthAdjust="spacing" textLength="132" x="910.5" y="1072.0238">matcher.MatchRule</text><rect fill="#E2E2F0" height="33.0679" rx="2.5" ry="2.5" style="stroke:#181818;stroke-width:0.5;" width="148" x="1059.5" y="50"/><text fill="#000000" font-family="sans-serif" font-size="14" lengthAdjust="spacing" textLength="134" x="1066.5" y="71.9659">isInteractiveSession</text><rect fill="#E2E2F0" height="33.0679" rx="2.5" ry="2.5" style="stroke:#181818;stroke-width:0.5;" width="148" x="1059.5" y="1050.0579"/><text fill="#000000" font-family="sans-serif" font-size="14" lengthAdjust="spacing" textLength="134" x="1066.5" y="1072.0238">isInteractiveSession</text><rect fill="#E2E2F0" height="33.0679" rx="2.5" ry="2.5" style="stroke:#181818;stroke-width:0.5;" width="136" x="1217.5" y="50"/><text fill="#000000" font-family="sans-serif" font-size="14" lengthAdjust="spacing" textLength="122" x="1224.5" y="71.9659">prompter.Confirm</text><rect fill="#E2E2F0" height="33.0679" rx="2.5" ry="2.5" style="stroke:#181818;stroke-width:0.5;" width="136" x="1217.5" y="1050.0579"/><text fill="#000000" font-family="sans-serif" font-size="14" lengthAdjust="spacing" textLength="122" x="1224.5" y="1072.0238">prompter.Confirm</text><rect fill="#E2E2F0" height="33.0679" rx="2.5" ry="2.5" style="stroke:#181818;stroke-width:0.5;" width="221" x="1363.5" y="50"/><text fill="#000000" font-family="sans-serif" font-size="14" lengthAdjust="spacing" textLength="207" x="1370.5" y="71.9659">executor.Command + cmd.Run</text><rect fill="#E2E2F0" height="33.0679" rx="2.5" ry="2.5" style="stroke:#181818;stroke-width:0.5;" width="221" x="1363.5" y="1050.0579"/><text fill="#000000" font-family="sans-serif" font-size="14" lengthAdjust="spacing" textLength="207" x="1370.5" y="1072.0238">executor.Command + cmd.Run</text><rect fill="#E2E2F0" height="33.0679" rx="2.5" ry="2.5" style="stroke:#181818;stroke-width:0.5;" width="106" x="1594.5" y="50"/><text fill="#000000" font-family="sans-serif" font-size="14" lengthAdjust="spacing" textLength="92" x="1601.5" y="71.9659">OS Command</text><rect fill="#E2E2F0" height="33.0679" rx="2.5" ry="2.5" style="stroke:#181818;stroke-width:0.5;" width="106" x="1594.5" y="1050.0579"/><text fill="#000000" font-family="sans-serif" font-size="14" lengthAdjust="spacing" textLength="92" x="1601.5" y="1072.0238">OS Command</text><polygon fill="#181818" points="199.5,113.7739,209.5,117.7739,199.5,121.7739,203.5,117.7739" style="stroke:#181818;stroke-width:1.0;"/><line style="stroke:#181818;stroke-width:1.0;" x1="23.5" x2="205.5" y1="117.7739" y2="117.7739"/><text fill="#000000" font-family="sans-serif" font-size="13" lengthAdjust="spacing" textLength="164" x="30.5" y="111.9649">run mulonda &lt;cmd&gt; &lt;args&gt;</text><polygon fill="#181818" points="312.5,145.4799,322.5,149.4799,312.5,153.4799,316.5,149.4799" style="stroke:#181818;stroke-width:1.0;"/><line style="stroke:#181818;stroke-width:1.0;" x1="211.5" x2="318.5" y1="149.4799" y2="149.4799"/><text fill="#000000" font-family="sans-serif" font-size="13" lengthAdjust="spacing" textLength="55" x="218.5" y="143.6709">Execute()</text><polygon fill="#181818" points="594.5,177.186,604.5,181.186,594.5,185.186,598.5,181.186" style="stroke:#181818;stroke-width:1.0;"/><line style="stroke:#181818;stroke-width:1.0;" x1="324.5" x2="600.5" y1="181.186" y2="181.186"/><text fill="#000000" font-family="sans-serif" font-size="13" lengthAdjust="spacing" textLength="172" x="331.5" y="175.377">parseGlobalFlags(os.Args[1:])</text><polygon fill="#181818" points="335.5,208.892,325.5,212.892,335.5,216.892,331.5,212.892" style="stroke:#181818;stroke-width:1.0;"/><line style="stroke:#181818;stroke-width:1.0;stroke-dasharray:2.0,2.0;" x1="329.5" x2="605.5" y1="212.892" y2="212.892"/><text fill="#000000" font-family="sans-serif" font-size="13" lengthAdjust="spacing" textLength="258" x="341.5" y="207.083">configPath, watchlistPath, passthrough, err</text><path d="M137,227.892 L198.2188,227.892 L198.2188,237.598 L188.2188,247.598 L137,247.598 L137,227.892 " fill="#EEEEEE" style="stroke:#000000;stroke-width:1.5;"/><rect fill="none" height="774.4599" style="stroke:#000000;stroke-width:1.5;" width="1573.5" x="137" y="227.892"/><text fill="#000000" font-family="sans-serif" font-size="13" font-weight="bold" lengthAdjust="spacing" textLength="16.2188" x="152" y="242.789">alt</text><text fill="#000000" font-family="sans-serif" font-size="11" font-weight="bold" lengthAdjust="spacing" textLength="241.0313" x="213.2188" y="241.6509">[passthrough command (not management)]</text><polygon fill="#181818" points="715.5,267.304,725.5,271.304,715.5,275.304,719.5,271.304" style="stroke:#181818;stroke-width:1.0;"/><line style="stroke:#181818;stroke-width:1.0;" x1="324.5" x2="721.5" y1="271.304" y2="271.304"/><text fill="#000000" font-family="sans-serif" font-size="13" lengthAdjust="spacing" textLength="103" x="331.5" y="265.495">Load(configPath)</text><polygon fill="#181818" points="335.5,299.01,325.5,303.01,335.5,307.01,331.5,303.01" style="stroke:#181818;stroke-width:1.0;"/><line style="stroke:#181818;stroke-width:1.0;stroke-dasharray:2.0,2.0;" x1="329.5" x2="726.5" y1="303.01" y2="303.01"/><text fill="#000000" font-family="sans-serif" font-size="13" lengthAdjust="spacing" textLength="18" x="341.5" y="297.201">cfg</text><polygon fill="#181818" points="826.5,330.716,836.5,334.716,826.5,338.716,830.5,334.716" style="stroke:#181818;stroke-width:1.0;"/><line style="stroke:#181818;stroke-width:1.0;" x1="324.5" x2="832.5" y1="334.716" y2="334.716"/><text fill="#000000" font-family="sans-serif" font-size="13" lengthAdjust="spacing" textLength="119" x="331.5" y="328.907">Load(watchlistPath)</text><polygon fill="#181818" points="335.5,362.4221,325.5,366.4221,335.5,370.4221,331.5,366.4221" style="stroke:#181818;stroke-width:1.0;"/><line style="stroke:#181818;stroke-width:1.0;stroke-dasharray:2.0,2.0;" x1="329.5" x2="837.5" y1="366.4221" y2="366.4221"/><text fill="#000000" font-family="sans-serif" font-size="13" lengthAdjust="spacing" textLength="29" x="341.5" y="360.6131">rules</text><polygon fill="#181818" points="964.5,394.1281,974.5,398.1281,964.5,402.1281,968.5,398.1281" style="stroke:#181818;stroke-width:1.0;"/><line style="stroke:#181818;stroke-width:1.0;" x1="324.5" x2="970.5" y1="398.1281" y2="398.1281"/><text fill="#000000" font-family="sans-serif" font-size="13" lengthAdjust="spacing" textLength="262" x="331.5" y="392.3191">MatchRule(command, commandArgs, rules)</text><polygon fill="#181818" points="335.5,425.8341,325.5,429.8341,335.5,433.8341,331.5,429.8341" style="stroke:#181818;stroke-width:1.0;"/><line style="stroke:#181818;stroke-width:1.0;stroke-dasharray:2.0,2.0;" x1="329.5" x2="975.5" y1="429.8341" y2="429.8341"/><text fill="#000000" font-family="sans-serif" font-size="13" lengthAdjust="spacing" textLength="144" x="341.5" y="424.0251">matchedRule?, matched</text><path d="M147,444.8341 L208.2188,444.8341 L208.2188,454.5401 L198.2188,464.5401 L147,464.5401 L147,444.8341 " fill="#EEEEEE" style="stroke:#000000;stroke-width:1.5;"/><rect fill="none" height="362.0058" style="stroke:#000000;stroke-width:1.5;" width="1226.5" x="147" y="444.8341"/><text fill="#000000" font-family="sans-serif" font-size="13" font-weight="bold" lengthAdjust="spacing" textLength="16.2188" x="162" y="459.7311">alt</text><text fill="#000000" font-family="sans-serif" font-size="11" font-weight="bold" lengthAdjust="spacing" textLength="98.1563" x="223.2188" y="458.593">[matched == true]</text><polygon fill="#181818" points="1121.5,484.2461,1131.5,488.2461,1121.5,492.2461,1125.5,488.2461" style="stroke:#181818;stroke-width:1.0;"/><line style="stroke:#181818;stroke-width:1.0;" x1="324.5" x2="1127.5" y1="488.2461" y2="488.2461"/><text fill="#000000" font-family="sans-serif" font-size="13" lengthAdjust="spacing" textLength="126" x="331.5" y="482.4371">isInteractiveSession()</text><polygon fill="#181818" points="335.5,515.9521,325.5,519.9521,335.5,523.9521,331.5,519.9521" style="stroke:#181818;stroke-width:1.0;"/><line style="stroke:#181818;stroke-width:1.0;stroke-dasharray:2.0,2.0;" x1="329.5" x2="1132.5" y1="519.9521" y2="519.9521"/><text fill="#000000" font-family="sans-serif" font-size="13" lengthAdjust="spacing" textLength="57" x="341.5" y="514.1431">true/false</text><path d="M157,534.9521 L218.2188,534.9521 L218.2188,544.6582 L208.2188,554.6582 L157,554.6582 L157,534.9521 " fill="#EEEEEE" style="stroke:#000000;stroke-width:1.5;"/><rect fill="none" height="264.8878" style="stroke:#000000;stroke-width:1.5;" width="1206.5" x="157" y="534.9521"/><text fill="#000000" font-family="sans-serif" font-size="13" font-weight="bold" lengthAdjust="spacing" textLength="16.2188" x="172" y="549.8492">alt</text><text fill="#000000" font-family="sans-serif" font-size="11" font-weight="bold" lengthAdjust="spacing" textLength="67.4688" x="233.2188" y="548.7111">[interactive]</text><polygon fill="#181818" points="1273.5,574.3642,1283.5,578.3642,1273.5,582.3642,1277.5,578.3642" style="stroke:#181818;stroke-width:1.0;"/><line style="stroke:#181818;stroke-width:1.0;" x1="324.5" x2="1279.5" y1="578.3642" y2="578.3642"/><text fill="#000000" font-family="sans-serif" font-size="13" lengthAdjust="spacing" textLength="109" x="331.5" y="572.5552">Confirm(message)</text><polygon fill="#181818" points="335.5,606.0702,325.5,610.0702,335.5,614.0702,331.5,610.0702" style="stroke:#181818;stroke-width:1.0;"/><line style="stroke:#181818;stroke-width:1.0;stroke-dasharray:2.0,2.0;" x1="329.5" x2="1284.5" y1="610.0702" y2="610.0702"/><text fill="#000000" font-family="sans-serif" font-size="13" lengthAdjust="spacing" textLength="41" x="341.5" y="604.2612">yes/no</text><path d="M167,625.0702 L228.2188,625.0702 L228.2188,634.7762 L218.2188,644.7762 L167,644.7762 L167,625.0702 " fill="#EEEEEE" style="stroke:#000000;stroke-width:1.5;"/><rect fill="none" height="68.3939" style="stroke:#000000;stroke-width:1.5;" width="217" x="167" y="625.0702"/><text fill="#000000" font-family="sans-serif" font-size="13" font-weight="bold" lengthAdjust="spacing" textLength="16.2188" x="182" y="639.9672">alt</text><text fill="#000000" font-family="sans-serif" font-size="11" font-weight="bold" lengthAdjust="spacing" textLength="23.375" x="243.2188" y="638.8291">[no]</text><polygon fill="#181818" points="222.5,664.4822,212.5,668.4822,222.5,672.4822,218.5,668.4822" style="stroke:#181818;stroke-width:1.0;"/><line style="stroke:#181818;stroke-width:1.0;stroke-dasharray:2.0,2.0;" x1="216.5" x2="323.5" y1="668.4822" y2="668.4822"/><text fill="#000000" font-family="sans-serif" font-size="13" lengthAdjust="spacing" textLength="89" x="228.5" y="662.6732">error (aborted)</text><line style="stroke:#000000;stroke-width:1.0;stroke-dasharray:2.0,2.0;" x1="167" x2="384" y1="677.4822" y2="677.4822"/><text fill="#000000" font-family="sans-serif" font-size="11" font-weight="bold" lengthAdjust="spacing" textLength="26.7188" x="172" y="689.2411">[yes]</text><line style="stroke:#000000;stroke-width:1.0;stroke-dasharray:2.0,2.0;" x1="157" x2="1363.5" y1="701.4641" y2="701.4641"/><text fill="#000000" font-family="sans-serif" font-size="11" font-weight="bold" lengthAdjust="spacing" textLength="93.8438" x="162" y="713.223">[non-interactive]</text><path d="M167,724.446 L228.2188,724.446 L228.2188,734.152 L218.2188,744.152 L167,744.152 L167,724.446 " fill="#EEEEEE" style="stroke:#000000;stroke-width:1.5;"/><rect fill="none" height="68.3939" style="stroke:#000000;stroke-width:1.5;" width="314.9688" x="167" y="724.446"/><text fill="#000000" font-family="sans-serif" font-size="13" font-weight="bold" lengthAdjust="spacing" textLength="16.2188" x="182" y="739.343">alt</text><text fill="#000000" font-family="sans-serif" font-size="11" font-weight="bold" lengthAdjust="spacing" textLength="233.75" x="243.2188" y="738.2049">[cfg.non_interactive.passthrough == false]</text><polygon fill="#181818" points="222.5,763.858,212.5,767.858,222.5,771.858,218.5,767.858" style="stroke:#181818;stroke-width:1.0;"/><line style="stroke:#181818;stroke-width:1.0;stroke-dasharray:2.0,2.0;" x1="216.5" x2="323.5" y1="767.858" y2="767.858"/><text fill="#000000" font-family="sans-serif" font-size="13" lengthAdjust="spacing" textLength="88" x="228.5" y="762.049">error (blocked)</text><line style="stroke:#000000;stroke-width:1.0;stroke-dasharray:2.0,2.0;" x1="167" x2="481.9688" y1="776.858" y2="776.858"/><text fill="#000000" font-family="sans-serif" font-size="11" font-weight="bold" lengthAdjust="spacing" textLength="105.8438" x="172" y="788.617">[passthrough true]</text><polygon fill="#181818" points="1462,833.5459,1472,837.5459,1462,841.5459,1466,837.5459" style="stroke:#181818;stroke-width:1.0;"/><line style="stroke:#181818;stroke-width:1.0;" x1="324.5" x2="1468" y1="837.5459" y2="837.5459"/><text fill="#000000" font-family="sans-serif" font-size="13" lengthAdjust="spacing" textLength="199" x="331.5" y="831.7369">Command(command, args).Run()</text><polygon fill="#181818" points="1635.5,865.252,1645.5,869.252,1635.5,873.252,1639.5,869.252" style="stroke:#181818;stroke-width:1.0;"/><line style="stroke:#181818;stroke-width:1.0;" x1="1474" x2="1641.5" y1="869.252" y2="869.252"/><text fill="#000000" font-family="sans-serif" font-size="13" lengthAdjust="spacing" textLength="93" x="1481" y="863.443">exec real binary</text><polygon fill="#181818" points="1485,896.958,1475,900.958,1485,904.958,1481,900.958" style="stroke:#181818;stroke-width:1.0;"/><line style="stroke:#181818;stroke-width:1.0;stroke-dasharray:2.0,2.0;" x1="1479" x2="1646.5" y1="900.958" y2="900.958"/><text fill="#000000" font-family="sans-serif" font-size="13" lengthAdjust="spacing" textLength="109" x="1491" y="895.149">exit status/output</text><polygon fill="#181818" points="335.5,928.664,325.5,932.664,335.5,936.664,331.5,932.664" style="stroke:#181818;stroke-width:1.0;"/><line style="stroke:#181818;stroke-width:1.0;stroke-dasharray:2.0,2.0;" x1="329.5" x2="1473" y1="932.664" y2="932.664"/><text fill="#000000" font-family="sans-serif" font-size="13" lengthAdjust="spacing" textLength="49" x="341.5" y="926.855">nil/error</text><line style="stroke:#000000;stroke-width:1.0;stroke-dasharray:2.0,2.0;" x1="137" x2="1710.5" y1="941.664" y2="941.664"/><text fill="#000000" font-family="sans-serif" font-size="11" font-weight="bold" lengthAdjust="spacing" textLength="220.6563" x="142" y="953.4229">[management command or parse error]</text><line style="stroke:#181818;stroke-width:1.0;" x1="324.5" x2="366.5" y1="981.3519" y2="981.3519"/><line style="stroke:#181818;stroke-width:1.0;" x1="366.5" x2="366.5" y1="981.3519" y2="994.3519"/><line style="stroke:#181818;stroke-width:1.0;" x1="325.5" x2="366.5" y1="994.3519" y2="994.3519"/><polygon fill="#181818" points="335.5,990.3519,325.5,994.3519,335.5,998.3519,331.5,994.3519" style="stroke:#181818;stroke-width:1.0;"/><text fill="#000000" font-family="sans-serif" font-size="13" lengthAdjust="spacing" textLength="159" x="331.5" y="975.5429">rootCmd.Execute() (Cobra)</text><polygon fill="#181818" points="222.5,1029.0579,212.5,1033.0579,222.5,1037.0579,218.5,1033.0579" style="stroke:#181818;stroke-width:1.0;"/><line style="stroke:#181818;stroke-width:1.0;stroke-dasharray:2.0,2.0;" x1="216.5" x2="323.5" y1="1033.0579" y2="1033.0579"/><text fill="#000000" font-family="sans-serif" font-size="13" lengthAdjust="spacing" textLength="38" x="228.5" y="1027.2489">return</text><!--SRC=[XLJVRzCm47xtNs7jAH5jAbwdRGXLW92ODhL32264hecRMYHsPJkm_VVSdPFOAKYy9Bcxxpv_zyE1EbWdFtlbn1bSqBK-WmdogWTjgjPUIV3o7h-NqRflgdVFgXw2OiJEsh14eE7LXyuUe7lVGUiPzaZE2oPhZhgjFbbe6B9bUudv3Q4-TTg71FiokIvLerkvwfxUkw5JetxsBg7QVpH1EQY3_gNsodjj3QEVdhvUbE9iVqPenTfS7qjXvnAek2EMW7qFff6l93LgDqHYQjWouM4lHoW37lP2q2Ja-evxBg-b6upiXywQ1kGDajt96t2jlnCSHnnr7d7ZC8fIi0C3t6kCN0wYiBvwYnJVNbz_BqL4hHDHdCSZXDDApdsFvXcy3oTdXnODvPmGq8NSYycnxi8W5tv1gtfbGYcad6J5-U91DCeYdKQOCPQhEROYIvwdFkKl5195GcGi3XV1vppZGc1eNfHYrBwQYg0UhM8g4Kyf6MrSjeQotwmcYuwXjeoclBsLmGqAlUbut31C_zS25YK32P0TH0IR8tHuTpXC_3hbiY-nnyt4j75TYnwvSHBbY1lZ6V-ByXjZnp2HpyR4cXOIvux_Ym8ErWNLJ9mAjH7DP9f6p6vZpVfljNGCJhV2w8yiMkNhXBsBLVz7pA6pzSyBCJdFF81C6R_fcQq5NIBk6oz0sWYwSILTOnuFen2DbnSLaE4KTFAW3RWNZAD_dSZKimxI1mY3tzWXd8SmKwG16Drjk1OXM7owElELmZhv9iUQCz7JZkDhc_xAHIcBhJquA0KNUTavfyBWp1y0]--></g></svg>