<?xml version="1.0" encoding="us-ascii" standalone="no"?><svg xmlns="http://www.w3.org/2000/svg" xmlns:xlink="http://www.w3.org/1999/xlink" contentStyleType="text/css" height="615px" preserveAspectRatio="none" style="width:1241px;height:615px;background:#FFFFFF;" version="1.1" viewBox="0 0 1241 615" width="1241px" zoomAndPan="magnify"><defs/><g><!--cluster Mulonda--><g id="cluster_Mulonda"><rect fill="none" height="602" rx="2.5" ry="2.5" style="stroke:#181818;stroke-width:1.0;" width="1023.43" x="212" y="7"/><text fill="#000000" font-family="sans-serif" font-size="14" font-weight="bold" lengthAdjust="spacing" textLength="63.0625" x="692.1838" y="23.9659">Mulonda</text></g><g id="elem_UC1"><ellipse cx="379.6124" cy="220.0025" fill="#F1F1F1" rx="151.6124" ry="32.7225" style="stroke:#181818;stroke-width:0.5;"/><text fill="#000000" font-family="sans-serif" font-size="14" lengthAdjust="spacing" textLength="194" x="282.6124" y="213.9005">Run Management Command</text><text fill="#000000" font-family="sans-serif" font-size="14" lengthAdjust="spacing" textLength="216" x="271.6124" y="232.9684">(list/add/config/install/uninstall)</text></g><g id="elem_UC2"><ellipse cx="379.6112" cy="331.0008" fill="#F1F1F1" rx="132.6612" ry="30.4708" style="stroke:#181818;stroke-width:0.5;"/><text fill="#000000" font-family="sans-serif" font-size="14" lengthAdjust="spacing" textLength="168" x="292.6112" y="326.1998">Proxy External Command</text><text fill="#000000" font-family="sans-serif" font-size="14" lengthAdjust="spacing" textLength="167" x="293.1112" y="345.2677">(mulonda &lt;cmd&gt; &lt;args&gt;)</text></g><g id="elem_UC3"><ellipse cx="774.5543" cy="562.9991" fill="#F1F1F1" rx="99.7443" ry="30.3291" style="stroke:#181818;stroke-width:0.5;"/><text fill="#000000" font-family="sans-serif" font-size="14" lengthAdjust="spacing" textLength="123" x="710.0543" y="558.1981">Parse Global Flags</text><text fill="#000000" font-family="sans-serif" font-size="14" lengthAdjust="spacing" textLength="4" x="712.5543" y="577.266">(</text><text fill="#000000" font-family="sans-serif" font-size="14" lengthAdjust="spacing" text-decoration="line-through" textLength="46" x="716.5543" y="577.266">config,</text><text fill="#000000" font-family="sans-serif" font-size="14" lengthAdjust="spacing" textLength="64" x="766.5543" y="577.266">watchlist)</text></g><g id="elem_UC4"><ellipse cx="774.5497" cy="480.9994" fill="#F1F1F1" rx="70.6897" ry="17.0294" style="stroke:#181818;stroke-width:0.5;"/><text fill="#000000" font-family="sans-serif" font-size="14" lengthAdjust="spacing" textLength="80" x="731.5497" y="485.7323">Load Config</text></g><g id="elem_UC5"><ellipse cx="774.5526" cy="410.9985" fill="#F1F1F1" rx="78.0926" ry="18.0185" style="stroke:#181818;stroke-width:0.5;"/><text fill="#000000" font-family="sans-serif" font-size="14" lengthAdjust="spacing" textLength="98" x="722.5526" y="415.7315">Load Watchlist</text></g><g id="elem_UC6"><ellipse cx="774.551" cy="331.0042" fill="#F1F1F1" rx="124.321" ry="27.2642" style="stroke:#181818;stroke-width:0.5;"/><text fill="#000000" font-family="sans-serif" font-size="14" lengthAdjust="spacing" textLength="211" x="667.5739" y="335.1271">Match Command Against Rules</text></g><g id="elem_UC7"><ellipse cx="774.5463" cy="156.9993" fill="#F1F1F1" rx="103.7963" ry="23.1593" style="stroke:#181818;stroke-width:0.5;"/><text fill="#000000" font-family="sans-serif" font-size="14" lengthAdjust="spacing" textLength="164" x="689.5463" y="161.7322">Prompt for Confirmation</text></g><g id="elem_UC8"><ellipse cx="1118.1478" cy="191.9976" fill="#F1F1F1" rx="81.6378" ry="18.7276" style="stroke:#181818;stroke-width:0.5;"/><text fill="#000000" font-family="sans-serif" font-size="14" lengthAdjust="spacing" textLength="108" x="1061.1478" y="196.7305">Block Command</text></g><g id="elem_UC9"><ellipse cx="1118.1497" cy="90.9959" fill="#F1F1F1" rx="101.2797" ry="22.6559" style="stroke:#181818;stroke-width:0.5;"/><text fill="#000000" font-family="sans-serif" font-size="14" lengthAdjust="spacing" textLength="158" x="1036.1497" y="95.7289">Execute Real Command</text></g><!--entity User--><g id="elem_User"><ellipse cx="85.5" cy="188.97" fill="#F1F1F1" rx="8" ry="8" style="stroke:#181818;stroke-width:0.5;"/><path d="M85.5,196.97 L85.5,223.97 M72.5,204.97 L98.5,204.97 M85.5,223.97 L72.5,238.97 M85.5,223.97 L98.5,238.97 " fill="none" style="stroke:#181818;stroke-width:0.5;"/><text fill="#000000" font-family="sans-serif" font-size="14" lengthAdjust="spacing" textLength="31" x="70" y="255.4359">User</text></g><!--entity Runner--><g id="elem_Runner"><ellipse cx="85.5" cy="303.43" fill="#F1F1F1" rx="8" ry="8" style="stroke:#181818;stroke-width:0.5;"/><path d="M85.5,311.43 L85.5,338.43 M72.5,319.43 L98.5,319.43 M85.5,338.43 L72.5,353.43 M85.5,338.43 L98.5,353.43 " fill="none" style="stroke:#181818;stroke-width:0.5;"/><text fill="#000000" font-family="sans-serif" font-size="14" lengthAdjust="spacing" textLength="159" x="6" y="369.8959">Non-Interactive Runner</text><text fill="#000000" font-family="sans-serif" font-size="14" lengthAdjust="spacing" textLength="66" x="6" y="388.9639">(CI/Script)</text></g><!--link User to UC1--><g id="link_User_UC1"><path d="M101.39,220 C125.69,220 170.34,220 221.79,220 " fill="none" id="User-to-UC1" style="stroke:#181818;stroke-width:1.0;"/><polygon fill="#181818" points="227.79,220,218.79,216,222.79,220,218.79,224,227.79,220" style="stroke:#181818;stroke-width:1.0;"/></g><!--link User to UC2--><g id="link_User_UC2"><path d="M101.21,226.63 C123.34,236.52 166.58,255.52 204,270 C236.19,282.46 266.4652,293.2614 297.3352,303.8614 " fill="none" id="User-to-UC2" style="stroke:#181818;stroke-width:1.0;"/><polygon fill="#181818" points="303.01,305.81,295.7969,299.104,298.281,304.1862,293.1988,306.6703,303.01,305.81" style="stroke:#181818;stroke-width:1.0;"/></g><!--link Runner to UC2--><g id="link_Runner_UC2"><path d="M165.17,340.5 C190.93,339.35 214.2959,338.3169 242.8159,337.0469 " fill="none" id="Runner-to-UC2" style="stroke:#181818;stroke-width:1.0;"/><polygon fill="#181818" points="248.81,336.78,239.641,333.1843,243.8149,337.0024,239.9969,341.1764,248.81,336.78" style="stroke:#181818;stroke-width:1.0;"/></g><!--link UC2 to UC3--><g id="link_UC2_UC3"><path d="M416.53,360.5 C466.38,400.27 560.57,471.26 650.22,516 C668.16,524.95 682.6392,531.1542 701.2992,538.2242 " fill="none" id="UC2-to-UC3" style="stroke:#181818;stroke-width:1.0;stroke-dasharray:7.0,7.0;"/><polygon fill="#181818" points="706.91,540.35,699.9111,533.4207,702.2344,538.5785,697.0766,540.9018,706.91,540.35" style="stroke:#181818;stroke-width:1.0;"/><text fill="#000000" font-family="sans-serif" font-size="13" lengthAdjust="spacing" textLength="57" x="562.22" y="462.917">&#171;include&#187;</text></g><!--link UC2 to UC4--><g id="link_UC2_UC4"><path d="M438.6,358.7 C492.58,383.83 575.7,420.83 650.22,447 C674.01,455.35 695.1349,461.4633 717.7549,467.3733 " fill="none" id="UC2-to-UC4" style="stroke:#181818;stroke-width:1.0;stroke-dasharray:7.0,7.0;"/><polygon fill="#181818" points="723.56,468.89,715.8635,462.7448,718.7224,467.6261,713.8412,470.485,723.56,468.89" style="stroke:#181818;stroke-width:1.0;"/><text fill="#000000" font-family="sans-serif" font-size="13" lengthAdjust="spacing" textLength="57" x="562.22" y="411.167">&#171;include&#187;</text></g><!--link UC2 to UC5--><g id="link_UC2_UC5"><path d="M480.02,351.24 C554.14,366.33 646.9906,385.2332 708.9406,397.8432 " fill="none" id="UC2-to-UC5" style="stroke:#181818;stroke-width:1.0;stroke-dasharray:7.0,7.0;"/><polygon fill="#181818" points="714.82,399.04,706.7987,393.3252,709.9205,398.0427,705.203,401.1645,714.82,399.04" style="stroke:#181818;stroke-width:1.0;"/><text fill="#000000" font-family="sans-serif" font-size="13" lengthAdjust="spacing" textLength="57" x="562.22" y="364.497">&#171;include&#187;</text></g><!--link UC2 to UC6--><g id="link_UC2_UC6"><path d="M512.55,331 C556.91,331 600.22,331 643.92,331 " fill="none" id="UC2-to-UC6" style="stroke:#181818;stroke-width:1.0;stroke-dasharray:7.0,7.0;"/><polygon fill="#181818" points="649.92,331,640.92,327,644.92,331,640.92,335,649.92,331" style="stroke:#181818;stroke-width:1.0;"/><text fill="#000000" font-family="sans-serif" font-size="13" lengthAdjust="spacing" textLength="57" x="562.22" y="326.897">&#171;include&#187;</text></g><!--link UC7 to UC9--><g id="link_UC7_UC9"><path d="M854.34,141.78 C910.2,130.98 978.889,117.7082 1034.319,106.9982 " fill="none" id="UC7-to-UC9" style="stroke:#181818;stroke-width:1.0;stroke-dasharray:7.0,7.0;"/><polygon fill="#181818" points="1040.21,105.86,1030.6146,103.64,1035.3008,106.8085,1032.1323,111.4947,1040.21,105.86" style="stroke:#181818;stroke-width:1.0;"/><text fill="#000000" font-family="sans-serif" font-size="13" lengthAdjust="spacing" textLength="56" x="929.87" y="113.987">&#171;extend&#187;</text></g><!--link UC7 to UC8--><g id="link_UC7_UC8"><path d="M869.34,166.61 C923.95,172.21 985.8813,178.548 1036.7913,183.768 " fill="none" id="UC7-to-UC8" style="stroke:#181818;stroke-width:1.0;stroke-dasharray:7.0,7.0;"/><polygon fill="#181818" points="1042.76,184.38,1034.2149,179.4829,1037.7861,183.87,1033.3989,187.4411,1042.76,184.38" style="stroke:#181818;stroke-width:1.0;"/><text fill="#000000" font-family="sans-serif" font-size="13" lengthAdjust="spacing" textLength="56" x="929.87" y="169.347">&#171;extend&#187;</text></g><!--link UC2 to UC7--><g id="link_UC2_UC7"><path d="M464.42,307.24 C487.63,298.07 511.76,285.86 531.22,270 C549.86,254.81 542.04,239.48 561.22,225 C598.38,196.97 641.6407,181.6492 683.2607,171.8192 " fill="none" id="UC2-to-UC7" style="stroke:#181818;stroke-width:1.0;stroke-dasharray:7.0,7.0;"/><polygon fill="#181818" points="689.1,170.44,679.4215,168.6158,684.2339,171.5893,681.2604,176.4016,689.1,170.44" style="stroke:#181818;stroke-width:1.0;"/><text fill="#000000" font-family="sans-serif" font-size="13" lengthAdjust="spacing" textLength="56" x="562.72" y="188.507">&#171;extend&#187;</text></g><!--link UC2 to UC9--><g id="link_UC2_UC9"><path d="M472.52,308.91 C494.21,299.92 515.55,287.4 531.22,270 C563.43,234.26 531.36,203.71 561.22,166 C589.4,130.43 606.89,129.44 650.22,116 C774.87,77.35 921.0894,77.0443 1017.0994,82.4243 " fill="none" id="UC2-to-UC9" style="stroke:#181818;stroke-width:1.0;stroke-dasharray:7.0,7.0;"/><polygon fill="#181818" points="1023.09,82.76,1014.3279,78.2627,1018.0978,82.4803,1013.8803,86.2502,1023.09,82.76" style="stroke:#181818;stroke-width:1.0;"/><text fill="#000000" font-family="sans-serif" font-size="13" lengthAdjust="spacing" textLength="56" x="746.55" y="76.677">&#171;extend&#187;</text></g><!--link UC2 to UC8--><g id="link_UC2_UC8"><path d="M483.02,311.67 C637.77,282.47 920.7341,229.0626 1048.1241,205.0226 " fill="none" id="UC2-to-UC8" style="stroke:#181818;stroke-width:1.0;stroke-dasharray:7.0,7.0;"/><polygon fill="#181818" points="1054.02,203.91,1044.4343,201.6483,1049.1067,204.8372,1045.9179,209.5096,1054.02,203.91" style="stroke:#181818;stroke-width:1.0;"/><text fill="#000000" font-family="sans-serif" font-size="13" lengthAdjust="spacing" textLength="56" x="746.55" y="230.257">&#171;extend&#187;</text></g><!--SRC=[TP9DJyCm38Rl-HNMJY3HLNpj0qsLO0A4n11YchXmCKbMegNEbAIm2V7VITTqb4sxj7MUrwyTkrhEFNW3LkKV7eIoadjbYBc5eYLQB629V86vdFgrbb1Xf5nBnf1xOs7cf8sVdIT3oGDvQKEiFYMyb4JIlj7H-26TSgkM_hW3wE8vOripw4nARKXW1xuPGEaaHnTEWn0cIA5w8Sd3s1G5aWY6MZcVeX0fDpHNUQh8UTGwBIb-rOLcuzEstRCrgpNShaA7XBfbLzJLOSGBaS48RUwonk7idmFQyBhNvZtatsdCNSXEahgB4qYIB_Jye-gkIJzlfpyQ5A5i9OxuOW-_DWvHSTbMJ2hOD0xNELRN3VFKqaLvR-V2nTB3F2ndKzKMM2qtIljjwOqsVD4uHy6WBRXTILxwi5JvDxge6x8VngeV8GmWsmoz5PonUjtRa8K7TBjLS0vNC1efuheKCijQvE8WkJn8Udka7ybmGsHOF8b_OB0B6g_-8J0y17QiVW40]--></g></svg>